<svg width="326" height="301" viewBox="0 0 326 301" fill="none" xmlns="http://www.w3.org/2000/svg">
<g id="completelogo">
<path id="M" d="M81.4064 163.65C81.4064 139.33 81.7376 122.394 81.7376 122.198H81.4064C81.2519 122.372 76.9906 132.121 70.8304 145.237L57.9803 171.966H44.9535L32.4345 145.562C25.9211 132.121 21.6819 122.372 21.6819 122.198H21.0416C21.0416 122.372 21.3728 139.33 21.3728 163.65V199H0V87H24.4197L51.9085 142.37H52.3942L79.5739 87H103V199H81.3623L81.4064 163.65Z" fill="#5FB2C4"/>
<path id="A" d="M143.252 176.613L136.152 199H114L152.012 87H178.009L216 199H193.302L186.093 176.613H143.252ZM171.652 130.688C168.594 120.917 165.208 109.886 165.098 109.713H164.618C164.465 109.886 161.079 120.765 157.867 130.515L149.369 157.071H179.954L171.652 130.688Z" fill="#5FB2C4"/>
<path id="D" d="M267.587 87C299.96 87 321 108.935 321 143.467C321 177.999 300.114 199 268.29 199H227V87H267.587ZM266.467 179.019C284.74 179.019 299.411 168.616 299.411 143.814C299.411 117.883 284.849 106.894 266.467 106.894H248.677V178.911L266.467 179.019Z" fill="#5FB2C4"/>
<g id="logo">
<path id="top" d="M309.736 17.54C309.703 21.5864 308.804 30.4864 300.096 44.3596C295.289 52.0404 292.552 54.1296 288.812 59.0698C287.189 61.2631 285.681 63.5413 284.296 65.8951C282.335 69.1004 280.564 72.4202 278.992 75.8371C271.74 74.6739 264.412 74.056 257.07 73.9886C249.362 73.9397 241.66 74.3992 234.011 75.3638C231.872 70.794 229.876 67.3029 228.63 65.2475C227.085 62.6179 225.557 60.4502 225.557 60.4502C225.105 59.8308 224.631 59.1671 224.093 58.481C220.346 53.5683 217.62 51.5009 212.699 43.7856C209.776 39.1874 203.651 29.5929 202.882 17.0067C202.792 15.2995 202.805 13.5882 202.924 11.8827C202.973 5.769 226.95 1.08024 256.373 1.31791C285.795 1.55558 309.693 6.69707 309.644 12.7448L309.646 12.5688C309.778 14.2223 309.809 15.8826 309.736 17.54Z" fill="#F4CF7E"/>
<path id="handle" d="M324.553 27.242C324.293 25.8942 323.788 24.6049 323.062 23.4376C322.396 22.3948 321.543 21.4816 320.547 20.7429C319.552 20.0616 318.432 19.5831 317.25 19.3352C315.984 19.085 314.682 19.0745 313.412 19.3042C312.418 19.4632 311.498 19.9227 310.776 20.6201C310.533 20.8748 310.344 21.1749 310.218 21.503C310.093 21.8311 310.034 22.1807 310.046 22.5315C310.057 22.8823 310.139 23.2274 310.285 23.5467C310.432 23.866 310.641 24.1531 310.9 24.3915C311.102 24.5424 311.335 24.6472 311.583 24.6984C311.83 24.7497 312.086 24.7462 312.332 24.6881C312.778 24.6097 313.181 24.3711 313.462 24.0177C313.604 23.8462 313.703 23.6438 313.751 23.4269C313.798 23.2101 313.794 22.985 313.737 22.7704C313.695 22.5835 313.622 22.405 313.52 22.2425C313.413 22.0701 313.251 21.9378 313.06 21.8662C313.391 21.438 313.826 21.1017 314.326 20.8899C314.868 20.6669 315.431 20.4953 316.006 20.3774C316.842 20.212 317.706 20.2567 318.52 20.5073C319.396 20.7692 320.206 21.217 320.891 21.8198C321.668 22.5125 322.318 23.3336 322.813 24.2467C323.413 25.298 323.829 26.4429 324.043 27.6325C324.506 29.547 324.375 31.5562 323.665 33.3947C322.974 35.0609 321.914 36.5509 320.564 37.7539C319.164 39.0202 317.56 40.0446 315.819 40.7846C314.104 41.5387 312.318 42.1262 310.489 42.539C307.905 43.0507 305.384 43.8388 302.97 44.8896C301.017 45.7185 299.219 46.8674 297.649 48.2883C296.314 49.4726 295.3 50.9723 294.702 52.6487C294.123 54.3341 294.017 56.1445 294.395 57.8855C294.631 59.3643 295.348 60.7254 296.437 61.76C296.901 62.1856 297.462 62.4925 298.072 62.654C298.681 62.8156 299.322 62.8269 299.937 62.6871C300.41 62.6569 300.866 62.5 301.257 62.233C301.647 61.966 301.957 61.5988 302.155 61.1705C302.51 60.3184 302.602 59.3806 302.419 58.4764C301.971 58.8855 301.489 59.2557 300.977 59.5827C300.392 59.8801 299.766 60.0893 299.119 60.2034C298.649 60.3391 298.153 60.3642 297.671 60.2766C297.19 60.189 296.735 59.9911 296.344 59.6987C295.645 59.1538 295.179 58.3673 295.038 57.496C294.757 56.4092 294.766 55.2683 295.065 54.1862C295.397 53.1985 295.947 52.2968 296.674 51.5466C297.468 50.7355 298.381 50.0482 299.382 49.5079C300.509 48.8909 301.678 48.351 302.88 47.8921C304.141 47.42 305.446 46.9702 306.795 46.5865L310.818 45.4792C313.603 44.8097 316.252 43.6747 318.654 42.1227C320.425 40.9423 321.938 39.4185 323.102 37.6428C324.087 36.0999 324.691 34.347 324.863 32.5275C325.019 30.7601 324.914 28.9795 324.553 27.242V27.242Z" fill="#F4CF7E"/>
<path id="bottom" d="M320.285 95.153C320.143 96.1955 319.732 97.1897 319.09 98.0503C318.448 98.9109 317.592 99.6123 316.597 100.094C307.957 94.2792 284.494 89.9539 256.937 89.7313C229.379 89.5087 205.871 93.3935 197.117 99.1291C196.129 98.6311 195.285 97.916 194.657 97.0451C194.028 96.1742 193.634 95.1735 193.508 94.1289C193.52 93.5288 193.673 92.9387 193.957 92.4008C196.914 86.598 214.325 81.9102 237.489 80.3452C243.616 79.9465 250.155 79.7345 257.039 79.7901C263.358 79.8411 269.436 80.1143 275.188 80.5682C298.91 82.4101 316.786 87.4033 319.822 93.3157C320.118 93.889 320.276 94.5162 320.285 95.153V95.153Z" fill="#F4CF7E"/>
</g>
<g id="batter">
<path id="B" d="M29.0398 262.623C33.7835 263.021 38.1902 265.209 41.3457 268.733C44.5012 272.258 46.1633 276.848 45.9873 281.551C45.9873 294.004 37.5594 301 23.1998 301H0V229H20.1767C33.3912 229 40.9947 235.792 40.9947 246.275C40.9947 256.759 34.2386 261.287 29.0398 262.328V262.623ZM20.9096 261.196C30.0704 261.196 37.1472 256.464 37.1472 246.592C37.1472 237.74 30.5972 232.6 19.6729 232.6H3.96208V261.196H20.9096ZM23.3143 297.423C34.5363 297.423 42.0253 292.079 42.0253 281.687C42.0253 270.774 33.0935 264.615 22.7876 264.615H3.96208V297.4L23.3143 297.423Z" fill="#D16046"/>
<path id="A_2" d="M64.6805 278.766L56.1286 301H52L79.9471 229H84.1663L112 301H107.849L99.2968 278.766H64.6805ZM89.4971 253.362C86.8204 246.57 82.1928 233.415 82.0794 233.302H81.8753C81.8753 233.415 77.0435 246.366 74.4574 253.272L66.0189 275.166H97.7769L89.4971 253.362Z" fill="#D16046"/>
<path id="T" d="M145.932 232.691V301H142.046V232.691H119V229H169V232.691H145.932Z" fill="#D16046"/>
<path id="T_2" d="M202.493 232.691V301H198.53V232.691H175V229H226V232.691H202.493Z" fill="#D16046"/>
<path id="E" d="M232 229H273V232.691H235.762V261.083H265.476V264.796H235.762V297.287H272.91V301H232V229Z" fill="#D16046"/>
<path id="R" d="M300.131 270.026C298.61 270.14 294.74 270.14 293.421 270.14H283.87V301H280V229H296.821C311.874 229 320.597 236.902 320.597 250.079C320.597 262.011 313.887 267.876 304.247 269.415L321 301H316.526L300.131 270.026ZM297.581 266.63C308.765 266.63 316.705 262.623 316.705 250.079C316.705 238.26 308.966 232.691 296.575 232.691H283.87V266.653L297.581 266.63Z" fill="#D16046"/>
</g>
</g>
</svg>
