<svg width="768" height="768" viewBox="0 0 768 768" fill="none" xmlns="http://www.w3.org/2000/svg">
<g id="preloader" clip-path="url(#clip0_40:3)">
<rect width="768" height="768" fill="white"/>
<g id="shark">
<mask id="mask0_40_3" style="mask-type:alpha" maskUnits="userSpaceOnUse" x="171" y="171" width="426" height="426">
<g id="circle-mask" clip-path="url(#clip1_40_3)">
<path id="Vector" d="M384.009 597.018C501.651 597.018 597.018 501.651 597.018 384.009C597.018 266.367 501.651 171 384.009 171C266.367 171 171 266.367 171 384.009C171 501.651 266.367 597.018 384.009 597.018Z" fill="white"/>
</g>
</mask>
<g mask="url(#mask0_40_3)">
<path id="fourth-wave" opacity="0.8" d="M-20.5164 378.79C39.4773 353.17 51.3981 411.331 116.641 411.331C181.884 411.331 181.884 377.487 247.127 377.487C312.37 377.487 312.387 411.331 377.629 411.331C442.872 411.331 442.889 377.487 508.149 377.487C573.409 377.487 571.919 384.797 632.082 410.062C657.481 420.723 655.923 421.772 656.245 449.304C656.567 476.836 622.735 477.106 623.006 504.638C623.277 532.17 657.244 531.714 657.566 559.313C657.888 586.913 623.971 587.251 624.293 614.783C624.614 642.315 673.906 674.433 648.558 685.246C588.987 710.629 577.1 652.722 512.315 652.722C447.529 652.722 447.529 686.566 382.743 686.566C317.958 686.566 317.958 652.722 253.172 652.722C188.386 652.722 188.369 686.566 123.584 686.566C58.7978 686.566 60.3049 679.07 0.565222 653.992C-24.8343 643.331 -23.7336 642.569 -24.5295 615.071C-25.3253 587.573 8.59147 586.558 7.81255 559.026C7.03363 531.494 -26.8832 532.458 -27.6621 504.875C-28.441 477.293 11.995 470.693 3.93489 444.346C-7.42716 407.27 -45.8651 389.535 -20.5164 378.79Z" fill="#EBFAFF"/>
<path id="third-wave" opacity="0.87" d="M92.9179 377.792C152.912 352.155 164.832 410.316 230.075 410.316C295.318 410.316 295.318 376.472 360.561 376.472C425.804 376.472 425.821 410.316 491.064 410.316C556.307 410.316 556.324 376.472 621.583 376.472C686.843 376.472 685.353 383.782 745.516 409.046C770.916 419.707 769.358 420.756 769.679 448.288C770.001 475.82 736.186 476.176 736.44 503.708C736.694 531.24 770.678 530.783 771 558.383C771.322 585.982 737.405 586.321 737.727 613.87C738.049 641.419 787.341 673.503 761.992 684.333C702.422 709.716 690.535 651.809 625.749 651.809C560.963 651.809 560.963 685.653 496.178 685.653C431.392 685.653 431.392 651.809 366.606 651.809C301.82 651.809 301.803 685.653 237.018 685.653C172.232 685.653 173.739 678.173 113.999 653.095C88.6 642.417 89.7006 641.656 88.9048 614.174C88.1089 586.693 122.026 585.661 121.247 558.163C120.468 530.664 86.5511 531.578 85.6875 504.012C84.8239 476.447 125.345 469.847 117.284 443.5C106.007 406.339 67.5692 388.622 92.9179 377.792Z" fill="#AAEDFF"/>
<path id="shark-fin" d="M314.08 345.724C316.697 356.913 317.43 368.46 316.247 379.89C313.69 404.173 303.852 411.415 306.934 420.79C314.808 444.786 397.526 452.705 409.379 427.559C417.524 410.265 391.362 379.196 369.01 363.932C352.69 352.999 333.703 346.705 314.08 345.724Z" fill="#6D6D6D" stroke="#3F3F3F" stroke-width="3" stroke-miterlimit="10"/>
<path id="shark-fin-2" d="M573.163 345.724C570.546 356.913 569.813 368.46 570.995 379.89C573.552 404.173 583.39 411.415 580.309 420.79C572.435 444.786 489.717 452.705 477.864 427.559C469.719 410.265 495.881 379.196 518.232 363.932C534.552 352.999 553.54 346.705 573.163 345.724Z" fill="#6D6D6D" stroke="#3F3F3F" stroke-width="3" stroke-miterlimit="10"/>
<path id="second-wave" opacity="0.51" d="M669.03 420.012C616.758 394.138 617.943 389.078 559.592 389.078C501.241 389.078 501.241 421.704 442.889 421.704C384.538 421.704 384.538 389.078 326.187 389.078C267.836 389.078 267.836 421.704 209.569 421.704C151.303 421.704 138.095 365.252 85.6368 390.737C59.9663 403.225 108.818 434.091 108.53 462.638C108.242 491.185 75.5955 490.83 75.3076 519.377C75.0198 547.925 107.667 548.229 107.379 576.777C107.091 605.324 74.4441 604.986 74.1054 633.516C73.7667 662.046 71.4977 663.468 97.1004 676.142C149.051 701.847 147.832 707.076 205.76 707.076C263.687 707.076 263.704 674.45 321.632 674.45C379.56 674.45 379.577 707.076 437.505 707.076C495.432 707.076 495.449 674.45 553.377 674.45C611.305 674.45 624.327 730.766 676.413 705.384C702.083 692.878 653.655 661.776 654.4 633.245C655.145 604.715 687.741 605.51 688.435 576.98C689.129 548.449 656.499 547.637 657.21 519.107C657.922 490.576 684.032 494.028 690.789 466.276C696.563 442.4 694.632 432.686 669.03 420.012Z" fill="#029DC4"/>
<path id="first-wave" d="M623.818 418.32C577.761 395.526 578.81 391.075 527.402 391.075C475.993 391.075 476.01 419.843 424.602 419.843C373.193 419.843 373.193 391.075 321.801 391.075C270.41 391.075 270.393 419.843 218.984 419.843C167.575 419.843 156.095 370.058 109.868 392.564C87.2453 403.564 130.289 430.757 130.035 455.903C129.781 481.049 101.029 480.711 100.775 505.857C100.521 531.003 129.273 531.24 129.019 556.42C128.765 581.6 100.013 581.278 99.7588 606.424C99.5048 631.57 97.4559 632.805 120.078 643.974C165.798 666.615 164.731 671.218 215.767 671.218C266.803 671.218 266.803 642.451 317.839 642.451C368.875 642.451 368.892 671.218 419.928 671.218C470.964 671.218 470.964 642.451 522.017 642.451C573.07 642.451 584.5 692.083 630.388 669.746C653.011 658.747 610.34 631.333 610.949 606.204C611.559 581.075 640.328 581.769 640.955 556.623C641.581 531.477 612.744 530.8 613.354 505.705C613.963 480.609 637.06 483.621 642.953 459.186C648.134 438.017 646.441 429.556 623.818 418.32Z" fill="#029DC4"/>
</g>
</g>
</g>
<g id="controller">
<path id="controller-shadow" d="M454.576 221.854C459.471 216.982 465.347 213.208 471.813 210.781C481.798 207.097 490.136 207.931 501.071 209.172C516.079 210.878 526.278 214.737 541.595 220.613C560.442 227.789 564.863 231.784 567.81 235.41C572.035 240.765 574.794 247.127 575.818 253.872L585.667 259.418C604.774 299.406 621.422 340.524 635.517 382.542C635.517 382.542 658.222 450.3 655.818 522.17C655.585 529.5 654.752 543.89 644.747 556.029C639.897 561.837 633.75 566.422 626.801 569.413C619.852 572.405 612.297 573.719 604.747 573.25C589.875 571.99 580.044 562.875 568.43 551.705C523.33 508.343 520.849 500.722 508.73 491.394C495.623 481.29 487.286 481.523 379.519 480.708C294.982 480.068 274.293 479.719 255.796 496.222C249.707 501.672 233.963 517.826 220.1 533.069C203.832 551.026 199.411 557.581 188.088 563.845C184.21 566.055 161.447 578.583 143.783 571.854C113.788 560.412 113.187 499.189 113.012 481.368C112.799 461.412 115.067 431.49 146.866 343.485C159.411 308.714 171.045 280.246 179.479 260.388L192.392 254.24C192.669 248.286 194.682 242.543 198.182 237.718C201.682 232.894 206.518 229.2 212.092 227.09C232.005 218.034 241.971 213.516 258.258 210.471C275.146 207.329 283.93 205.817 294.555 209.85C300.569 212.178 306.026 215.746 310.571 220.322L454.576 221.854Z" fill="#4F4F51"/>
<path id="controller-color" d="M451.454 208.803C456.225 204.061 461.948 200.386 468.245 198.021C477.94 194.414 486.084 195.248 496.748 196.45C511.348 198.118 521.217 201.88 536.205 207.581C554.567 214.582 558.871 218.461 561.741 221.99C565.834 227.22 568.505 233.42 569.497 239.987L579.075 245.378C597.66 284.314 613.848 324.351 627.549 365.264C627.549 365.264 649.672 431.199 647.326 501.342C647.093 508.479 646.279 522.5 636.545 534.31C631.824 539.968 625.838 544.437 619.072 547.354C612.305 550.271 604.947 551.556 597.592 551.104C583.108 549.863 573.53 541 562.226 530.121C518.309 487.884 515.885 480.456 504.058 471.38C491.299 461.529 483.175 461.684 378.22 460.967C295.893 460.346 275.747 460.016 257.735 476.17C251.801 481.484 236.406 497.211 222.969 512.144C207.128 529.597 202.824 535.997 191.791 542.106C187.913 544.258 165.848 556.476 148.65 549.863C119.449 538.731 118.848 479.099 118.674 461.742C118.48 442.35 120.613 413.164 151.636 327.467C163.871 293.608 175.194 265.876 183.396 246.541L195.999 240.549C196.284 234.762 198.25 229.183 201.656 224.495C205.061 219.808 209.759 216.215 215.175 214.156C234.564 205.332 244.259 200.93 260.12 197.982C276.581 194.918 285.132 193.444 295.486 197.381C301.306 199.662 306.589 203.129 310.997 207.562L451.454 208.803Z" fill="#1E1E20" stroke="#231F20" stroke-miterlimit="10"/>
<g id="big-bottom-right-gray-button">
<path id="big-bottom-right-gray-button_2" d="M483.59 391.538C486.191 375.511 475.309 360.41 459.285 357.808C443.261 355.207 428.162 366.09 425.561 382.117C422.959 398.144 433.841 413.246 449.865 415.847C465.89 418.449 480.989 407.565 483.59 391.538Z" fill="#373737"/>
<path id="big-bottom-right-gray-button-shadow" d="M483.989 386.809C484.039 394.76 481.417 402.498 476.544 408.781C473.906 412.032 470.6 414.678 466.849 416.538C463.017 418.451 458.792 419.448 454.508 419.448C450.224 419.448 445.999 418.451 442.167 416.538C438.414 414.68 435.108 412.034 432.472 408.781C427.599 402.505 424.977 394.774 425.026 386.828C425.026 379.026 428.125 371.543 433.641 366.026C439.158 360.509 446.639 357.409 454.44 357.409C462.241 357.409 469.723 360.509 475.239 366.026C480.755 371.543 483.854 379.026 483.854 386.828L483.989 386.809ZM483.989 386.809C483.989 379.012 480.893 371.534 475.38 366.02C469.868 360.507 462.391 357.409 454.595 357.409C446.799 357.409 439.323 360.507 433.81 366.02C428.298 371.534 425.201 379.012 425.201 386.809C425.217 390.656 426.126 394.446 427.857 397.882C429.582 401.215 432.01 404.133 434.973 406.434C440.651 410.641 447.529 412.912 454.595 412.912C461.661 412.912 468.54 410.641 474.217 406.434C477.18 404.137 479.602 401.218 481.314 397.882C483.051 394.45 483.955 390.656 483.951 386.809H483.989Z" fill="#141313"/>
</g>
<g id="big-left-gray-button">
<path id="big-left-gray-button_2" d="M281.759 310.01C284.36 293.983 273.479 278.882 257.455 276.28C241.43 273.679 226.331 284.562 223.73 300.589C221.129 316.616 232.011 331.718 248.035 334.319C264.059 336.921 279.158 326.037 281.759 310.01Z" fill="#373737"/>
<path id="big-left-gray-button-shadow" d="M282.185 305.282C282.242 313.238 279.612 320.98 274.72 327.254C272.087 330.51 268.779 333.156 265.025 335.011C261.192 336.925 256.967 337.921 252.684 337.921C248.4 337.921 244.175 336.925 240.342 335.011C236.592 333.15 233.286 330.505 230.647 327.254C225.775 320.971 223.153 313.233 223.202 305.282C223.202 297.479 226.301 289.997 231.817 284.48C237.333 278.963 244.815 275.863 252.616 275.863C260.417 275.863 267.898 278.963 273.414 284.48C278.93 289.997 282.029 297.479 282.029 305.282H282.185ZM282.185 305.282C282.285 301.359 281.6 297.455 280.168 293.801C278.737 290.148 276.589 286.817 273.85 284.007C271.111 281.197 267.838 278.963 264.223 277.438C260.607 275.913 256.724 275.127 252.8 275.127C248.876 275.127 244.992 275.913 241.377 277.438C237.762 278.963 234.488 281.197 231.75 284.007C229.011 286.817 226.863 290.148 225.431 293.801C224 297.455 223.314 301.359 223.415 305.282C223.42 309.136 224.33 312.936 226.072 316.374C227.801 319.704 230.229 322.62 233.188 324.927C238.863 329.129 245.738 331.397 252.8 331.397C259.862 331.397 266.737 329.129 272.412 324.927C275.376 322.626 277.804 319.708 279.528 316.374C281.246 312.93 282.135 309.131 282.126 305.282H282.185Z" fill="#141313"/>
</g>
<g id="blue-button">
<path id="blue-button_2" d="M488.565 322.464C498.246 322.464 506.093 314.615 506.093 304.933C506.093 295.251 498.246 287.402 488.565 287.402C478.885 287.402 471.037 295.251 471.037 304.933C471.037 314.615 478.885 322.464 488.565 322.464Z" fill="#15B6EE"/>
<path id="blue-button-shadow" d="M506.384 304.972C506.533 309.801 504.912 314.518 501.828 318.236C500.227 320.192 498.213 321.768 495.929 322.85C493.646 323.932 491.15 324.493 488.623 324.493C486.097 324.493 483.601 323.932 481.318 322.85C479.034 321.768 477.02 320.192 475.419 318.236C472.371 314.497 470.749 309.796 470.843 304.972C470.875 301.501 471.928 298.116 473.871 295.241C475.814 292.365 478.561 290.125 481.769 288.801C484.977 287.477 488.503 287.128 491.909 287.796C495.314 288.465 498.447 290.122 500.916 292.56C504.303 295.815 506.268 300.275 506.384 304.972V304.972ZM505.802 304.972C505.871 300.373 504.122 295.934 500.936 292.619C498.492 290.193 495.386 288.544 492.007 287.88C488.629 287.216 485.13 287.567 481.95 288.887C478.771 290.208 476.053 292.44 474.139 295.302C472.224 298.164 471.199 301.528 471.192 304.972C471.242 307.22 471.79 309.43 472.795 311.442C473.801 313.454 475.24 315.218 477.009 316.607C480.337 319.179 484.438 320.546 488.643 320.486C492.828 320.498 496.888 319.067 500.141 316.433C501.83 315.045 503.222 313.33 504.232 311.391C505.19 309.384 505.706 307.195 505.744 304.972H505.802Z" fill="#0F5163"/>
</g>
<g id="red-button">
<path id="red-button_2" d="M560.364 322.464C570.045 322.464 577.892 314.615 577.892 304.933C577.892 295.251 570.045 287.402 560.364 287.402C550.684 287.402 542.836 295.251 542.836 304.933C542.836 314.615 550.684 322.464 560.364 322.464Z" fill="#E83A39"/>
<path id="red-button-shadow" d="M578.183 304.972C578.332 309.801 576.711 314.518 573.627 318.236C572.026 320.192 570.012 321.768 567.728 322.85C565.445 323.932 562.949 324.493 560.422 324.493C557.896 324.493 555.4 323.932 553.117 322.85C550.833 321.768 548.819 320.192 547.218 318.236C544.219 314.512 542.627 309.85 542.72 305.069C542.751 301.598 543.805 298.213 545.748 295.338C547.691 292.462 550.437 290.222 553.645 288.898C556.853 287.574 560.38 287.225 563.785 287.893C567.19 288.562 570.323 290.219 572.793 292.657C576.128 295.901 578.062 300.32 578.183 304.972V304.972ZM577.601 304.972C577.67 300.373 575.921 295.934 572.735 292.618C570.291 290.193 567.185 288.544 563.806 287.88C560.428 287.216 556.929 287.567 553.749 288.887C550.57 290.208 547.852 292.44 545.938 295.302C544.023 298.164 542.998 301.528 542.991 304.972C543.041 307.22 543.589 309.43 544.594 311.442C545.6 313.454 547.039 315.218 548.808 316.607C552.135 319.18 556.237 320.547 560.442 320.486C564.632 320.498 568.699 319.067 571.959 316.433C573.649 315.045 575.04 313.33 576.05 311.391C577.022 309.387 577.551 307.198 577.601 304.972V304.972Z" fill="#701818"/>
</g>
<g id="green-button">
<path id="green-button_2" d="M523.505 357.409C533.185 357.409 541.033 349.561 541.033 339.878C541.033 330.196 533.185 322.347 523.505 322.347C513.824 322.347 505.977 330.196 505.977 339.878C505.977 349.561 513.824 357.409 523.505 357.409Z" fill="#01E32F"/>
<path id="green-button-shadow" d="M541.304 339.878C541.458 344.705 539.845 349.422 536.767 353.143C535.138 355.077 533.108 356.633 530.818 357.704C528.528 358.776 526.033 359.337 523.505 359.349C520.982 359.332 518.494 358.759 516.218 357.669C513.942 356.58 511.935 355.001 510.34 353.046C507.349 349.317 505.758 344.658 505.841 339.878C505.993 335.276 507.928 330.914 511.237 327.712C514.546 324.511 518.969 322.721 523.573 322.721C528.177 322.721 532.6 324.511 535.909 327.712C539.217 330.914 541.152 335.276 541.304 339.878V339.878ZM540.742 339.878C540.82 337.557 540.43 335.243 539.595 333.075C538.76 330.908 537.498 328.93 535.884 327.26C534.269 325.59 532.335 324.262 530.197 323.356C528.059 322.449 525.76 321.981 523.437 321.981C521.115 321.981 518.816 322.449 516.677 323.356C514.539 324.262 512.605 325.59 510.991 327.26C509.376 328.93 508.114 330.908 507.279 333.075C506.444 335.243 506.054 337.557 506.132 339.878C506.179 342.128 506.726 344.339 507.732 346.351C508.738 348.363 510.178 350.127 511.949 351.514C515.257 354.094 519.336 355.487 523.531 355.469C527.726 355.451 531.794 354.024 535.08 351.417C536.765 350.022 538.15 348.3 539.152 346.356C540.138 344.335 540.68 342.126 540.742 339.878Z" fill="#10511B"/>
</g>
<g id="yellow-button">
<path id="yellow-button_2" d="M523.505 285.482C533.185 285.482 541.033 277.633 541.033 267.951C541.033 258.269 533.185 250.42 523.505 250.42C513.824 250.42 505.977 258.269 505.977 267.951C505.977 277.633 513.824 285.482 523.505 285.482Z" fill="#FEED21"/>
<path id="yellow-button-shadow" d="M541.304 267.951C541.458 272.778 539.845 277.495 536.767 281.216C535.158 283.166 533.136 284.734 530.847 285.808C528.558 286.882 526.059 287.434 523.531 287.425C521.002 287.416 518.508 286.845 516.226 285.755C513.945 284.664 511.935 283.081 510.34 281.119C507.349 277.389 505.758 272.731 505.841 267.951C505.993 263.349 507.928 258.986 511.237 255.785C514.546 252.583 518.969 250.793 523.573 250.793C528.177 250.793 532.6 252.583 535.909 255.785C539.217 258.986 541.152 263.349 541.304 267.951V267.951ZM540.742 267.951C540.82 265.629 540.43 263.316 539.595 261.148C538.76 258.98 537.498 257.003 535.884 255.333C534.269 253.663 532.335 252.335 530.197 251.428C528.059 250.521 525.76 250.054 523.437 250.054C521.115 250.054 518.816 250.521 516.677 251.428C514.539 252.335 512.605 253.663 510.991 255.333C509.376 257.003 508.114 258.98 507.279 261.148C506.444 263.316 506.054 265.629 506.132 267.951C506.182 270.2 506.729 272.41 507.735 274.422C508.741 276.433 510.18 278.197 511.949 279.587C515.275 282.162 519.377 283.53 523.583 283.465C527.773 283.474 531.839 282.043 535.1 279.412C536.789 278.021 538.174 276.298 539.172 274.351C540.147 272.354 540.683 270.172 540.742 267.951V267.951Z" fill="#6D6411"/>
</g>
<g id="plus-button">
<path id="circle-plus-button" d="M363.751 393.633C367.824 368.536 350.784 344.887 325.691 340.813C300.597 336.739 276.953 353.783 272.88 378.88C268.807 403.978 285.847 427.626 310.94 431.7C336.034 435.774 359.678 418.731 363.751 393.633Z" fill="#373737"/>
<path id="circle-plus-button-shadow" d="M364.376 386.246C364.47 398.695 360.372 410.813 352.742 420.649C348.659 425.8 343.505 430.001 337.638 432.963C331.633 435.954 325.016 437.51 318.307 437.51C311.598 437.51 304.981 435.954 298.976 432.963C293.131 430.018 287.996 425.836 283.93 420.707C276.323 410.866 272.228 398.763 272.296 386.324C272.543 374.27 277.505 362.793 286.115 354.355C294.726 345.918 306.301 341.192 318.355 341.192C330.41 341.192 341.984 345.918 350.595 354.355C359.206 362.793 364.168 374.27 364.415 386.324L364.376 386.246ZM364.376 386.246C364.129 374.202 359.172 362.735 350.568 354.305C341.964 345.875 330.4 341.153 318.355 341.153C306.311 341.153 294.746 345.875 286.143 354.305C277.539 362.735 272.582 374.202 272.335 386.246C272.348 392.272 273.776 398.211 276.503 403.583C279.186 408.818 282.994 413.394 287.652 416.984C292.099 420.416 297.112 423.041 302.466 424.741C312.815 428.043 323.935 428.043 334.284 424.741C339.632 423.044 344.64 420.418 349.078 416.984C353.73 413.4 357.531 408.83 360.207 403.603C362.912 398.218 364.313 392.273 364.299 386.246H364.376Z" fill="#141313"/>
<path id="plus-button_2" d="M352.956 376.007V387.507C352.946 389.649 352.091 391.7 350.576 393.214C349.062 394.728 347.012 395.584 344.871 395.594H332.151V408.315C332.141 410.46 331.283 412.514 329.765 414.029C328.246 415.544 326.191 416.397 324.046 416.402H312.548C310.407 416.392 308.357 415.537 306.842 414.022C305.328 412.508 304.473 410.457 304.463 408.315V395.594H291.744C289.602 395.584 287.552 394.728 286.038 393.214C284.524 391.7 283.668 389.649 283.658 387.507V376.007C283.663 373.864 284.517 371.81 286.032 370.295C287.547 368.779 289.601 367.926 291.744 367.92H304.463V355.199C304.468 353.054 305.321 350.998 306.836 349.479C308.35 347.961 310.404 347.103 312.548 347.093H324.046C326.194 347.098 328.253 347.953 329.772 349.473C331.29 350.992 332.146 353.05 332.151 355.199V367.92H344.812C345.878 367.915 346.935 368.121 347.921 368.524C348.908 368.928 349.805 369.523 350.562 370.274C351.318 371.025 351.919 371.918 352.33 372.902C352.741 373.886 352.953 374.941 352.956 376.007V376.007Z" fill="#888888"/>
<path id="plus-button-shadow" d="M352.956 376.007V385.238C353.043 386.776 352.946 388.319 352.665 389.834C352.293 391.38 351.517 392.799 350.416 393.945C349.272 395.178 347.751 395.997 346.092 396.272C345.682 396.346 345.267 396.392 344.851 396.408H341.38C339.849 396.408 338.317 396.311 336.766 396.214L334.458 396.079H333.314C332.9 396.086 332.495 395.949 332.17 395.691V395.691V407.326C332.226 408.629 332.108 409.933 331.821 411.205C331.489 412.603 330.828 413.903 329.895 414.995C328.961 416.088 327.78 416.942 326.45 417.488C325.737 417.796 324.976 417.979 324.201 418.031C323.556 418.068 322.908 418.068 322.262 418.031C320.963 418.031 319.664 417.895 318.384 417.934H314.507H312.568C311.789 417.899 311.019 417.755 310.28 417.507C308.839 417.029 307.553 416.171 306.557 415.025C305.643 413.912 305.046 412.571 304.831 411.147C304.61 409.866 304.519 408.567 304.56 407.268V395.536C302.007 396.047 299.408 396.294 296.804 396.272C295.505 396.272 294.206 396.272 292.926 396.272C291.54 396.352 290.154 396.113 288.874 395.574C287.644 395.001 286.566 394.149 285.724 393.085C284.883 392.021 284.301 390.775 284.026 389.446C283.794 388.167 283.716 386.865 283.794 385.568V377.811C283.712 376.512 283.797 375.209 284.046 373.932C284.366 372.671 284.987 371.507 285.854 370.537C286.722 369.568 287.811 368.823 289.029 368.366C290.269 367.916 291.59 367.731 292.907 367.823H304.657V356.188C304.565 354.874 304.736 353.556 305.161 352.309C305.617 351.087 306.361 349.992 307.33 349.118C308.298 348.243 309.463 347.615 310.726 347.286C312 347.021 313.305 346.93 314.604 347.015H322.359C323.658 346.941 324.961 347.032 326.237 347.286C327.497 347.617 328.659 348.245 329.624 349.12C330.589 349.994 331.33 351.088 331.783 352.309C332.223 353.552 332.401 354.873 332.306 356.188V367.823H344.812C346.958 367.823 349.017 368.675 350.536 370.191C352.056 371.707 352.912 373.764 352.917 375.91L352.956 376.007ZM352.956 376.007C352.951 373.861 352.095 371.804 350.575 370.288C349.056 368.772 346.997 367.92 344.851 367.92H332.151V356.285C332.246 354.97 332.068 353.649 331.627 352.406C331.175 351.185 330.434 350.091 329.469 349.217C328.504 348.342 327.342 347.713 326.082 347.383C324.806 347.129 323.503 347.038 322.204 347.112H314.448C313.15 347.027 311.845 347.118 310.571 347.383C309.308 347.712 308.143 348.34 307.174 349.215C306.206 350.089 305.462 351.184 305.006 352.406C304.581 353.653 304.41 354.971 304.502 356.285V367.92H292.752C291.435 367.828 290.114 368.013 288.874 368.463C287.656 368.92 286.567 369.665 285.699 370.634C284.832 371.604 284.211 372.768 283.891 374.029C283.642 375.306 283.557 376.609 283.639 377.908V385.665C283.535 386.966 283.639 388.275 283.949 389.543C284.332 390.74 285.011 391.82 285.923 392.685C286.834 393.549 287.949 394.17 289.165 394.488C289.735 394.65 290.319 394.754 290.91 394.799C291.472 394.799 292.112 394.799 292.849 394.799C294.148 394.799 295.447 394.799 296.727 394.799C299.33 394.777 301.929 395.024 304.482 395.536V395.536V407.268C304.334 408.56 304.606 409.866 305.258 410.992C305.929 412.014 306.824 412.87 307.875 413.493C308.807 414.096 309.859 414.486 310.958 414.637C311.474 414.695 311.994 414.695 312.51 414.637H314.448H318.326C319.625 414.637 320.925 414.637 322.204 414.521C322.844 414.521 323.523 414.521 324.143 414.521C324.673 414.55 325.204 414.55 325.733 414.521C326.945 414.449 328.117 414.064 329.136 413.405C330.156 412.746 330.987 411.834 331.55 410.759C332.114 409.583 332.348 408.276 332.229 406.977V395.342C332.553 395.083 332.958 394.946 333.373 394.954H334.516L336.824 394.818C338.375 394.818 339.907 394.643 341.438 394.624H343.746C344.541 394.624 345.278 394.624 345.937 394.624C347.328 394.461 348.659 393.962 349.815 393.17C351.06 392.316 352.009 391.096 352.529 389.679C352.926 388.195 353.064 386.653 352.936 385.122L352.956 376.007Z" fill="#231F20"/>
</g>
<g id="small-right-gray-button">
<path id="small-right-gray-button_2" d="M425.55 318.197C431.857 318.197 436.97 313.083 436.97 306.775C436.97 300.467 431.857 295.353 425.55 295.353C419.242 295.353 414.129 300.467 414.129 306.775C414.129 313.083 419.242 318.197 425.55 318.197Z" fill="#373737"/>
<path id="small-right-gray-button-shadow" d="M437.164 306.794C437.254 309.941 436.2 313.014 434.197 315.444C433.12 316.686 431.801 317.696 430.32 318.411C428.811 319.105 427.172 319.469 425.511 319.477C423.853 319.464 422.218 319.087 420.722 318.372C419.27 317.637 417.984 316.615 416.941 315.366C414.981 312.944 413.938 309.909 413.994 306.794C414.014 303.747 415.241 300.833 417.406 298.688C418.472 297.629 419.737 296.79 421.128 296.221C422.518 295.652 424.008 295.363 425.511 295.372C428.563 295.367 431.495 296.561 433.675 298.698C435.855 300.834 437.108 303.742 437.164 306.794ZM436.796 306.794C436.796 303.801 435.607 300.93 433.49 298.814C431.374 296.697 428.504 295.508 425.511 295.508C422.518 295.508 419.648 296.697 417.531 298.814C415.415 300.93 414.226 303.801 414.226 306.794C414.255 308.255 414.607 309.691 415.257 310.999C415.908 312.307 416.84 313.454 417.988 314.358C420.135 316.048 422.788 316.968 425.521 316.968C428.253 316.968 430.906 316.048 433.053 314.358C434.185 313.441 435.106 312.291 435.752 310.985C436.398 309.68 436.754 308.25 436.796 306.794V306.794Z" fill="#070707"/>
</g>
<g id="small-left-gray-button">
<path id="small-left-gray-button_2" d="M345.995 318.197C352.302 318.197 357.415 313.083 357.415 306.775C357.415 300.467 352.302 295.353 345.995 295.353C339.688 295.353 334.575 300.467 334.575 306.775C334.575 313.083 339.688 318.197 345.995 318.197Z" fill="#373737"/>
<path id="small-left-gray-button-shadow" d="M357.59 306.794C357.687 309.939 356.64 313.013 354.643 315.444C353.565 316.686 352.246 317.696 350.765 318.411C349.255 319.102 347.616 319.465 345.956 319.477C344.298 319.466 342.663 319.088 341.167 318.372C339.712 317.643 338.425 316.619 337.386 315.366C335.426 312.944 334.383 309.909 334.439 306.794C334.454 303.753 335.676 300.842 337.835 298.7C339.994 296.559 342.915 295.362 345.956 295.372C349.005 295.372 351.932 296.568 354.108 298.704C356.284 300.841 357.534 303.746 357.59 306.794ZM357.221 306.794C357.25 305.306 356.984 303.827 356.439 302.443C355.893 301.058 355.078 299.795 354.042 298.727C352.99 297.661 351.737 296.815 350.356 296.237C348.975 295.659 347.492 295.362 345.995 295.362C344.498 295.362 343.015 295.659 341.634 296.237C340.253 296.815 339 297.661 337.948 298.727C336.897 299.785 336.066 301.041 335.503 302.422C334.941 303.804 334.658 305.283 334.672 306.775C334.7 308.233 335.051 309.668 335.698 310.975C336.344 312.282 337.272 313.431 338.414 314.338C340.568 316.046 343.246 316.957 345.995 316.917C348.726 316.934 351.378 316.002 353.499 314.28C354.618 313.371 355.53 312.233 356.172 310.941C356.814 309.65 357.172 308.236 357.221 306.794V306.794Z" fill="#070707"/>
</g>
<g id="white-button">
<path id="white-button_2" d="M383.203 272.372C397.381 272.372 408.875 260.877 408.875 246.696C408.875 232.516 397.381 221.021 383.203 221.021C369.025 221.021 357.532 232.516 357.532 246.696C357.532 260.877 369.025 272.372 383.203 272.372Z" fill="white"/>
<path id="white-button-shadow" d="M409.301 246.793C409.506 253.853 407.135 260.746 402.632 266.186C400.276 269.059 397.311 271.37 393.951 272.952C390.59 274.535 386.919 275.348 383.205 275.333C379.491 275.318 375.827 274.476 372.479 272.866C369.132 271.257 366.185 268.922 363.853 266.031C359.467 260.575 357.134 253.754 357.26 246.755C357.3 241.668 358.839 236.706 361.684 232.489C364.529 228.272 368.553 224.987 373.255 223.046C377.956 221.105 383.125 220.593 388.116 221.574C393.106 222.556 397.697 224.987 401.313 228.564C406.244 233.371 409.109 239.91 409.301 246.793V246.793ZM408.448 246.793C408.513 243.481 407.934 240.188 406.742 237.097C405.507 233.977 403.661 231.136 401.313 228.739C397.759 225.128 393.208 222.66 388.244 221.652C383.279 220.644 378.126 221.142 373.446 223.081C368.765 225.021 364.771 228.314 361.974 232.538C359.176 236.763 357.704 241.727 357.745 246.793C357.808 250.078 358.597 253.308 360.055 256.252C361.513 259.196 363.605 261.78 366.179 263.82C371.032 267.63 377.034 269.681 383.203 269.638C389.34 269.632 395.291 267.532 400.072 263.685C402.548 261.644 404.586 259.125 406.063 256.276C407.54 253.327 408.354 250.091 408.448 246.793V246.793Z" fill="#AFAFAF"/>
</g>
</g>
<g id="alternativelightsaber">
<g id="light-saber-bottom-part-4">
<path id="handle-rectangle-1" d="M342.076 359.616L342.076 355.049L301.979 355.049L301.979 359.616L342.076 359.616Z" fill="#2C2A36"/>
<path id="handle-rectangle-4" d="M342.076 392.173L342.076 387.606L301.979 387.606L301.979 392.173L342.076 392.173Z" fill="#2C2A36"/>
<path id="handle-2" d="M293 387.606L293 359.663L343.034 359.393L361.187 359.421L361.187 387.606L293 387.606Z" fill="#B3BFC9" stroke="#231F20" stroke-width="0.75" stroke-miterlimit="10"/>
<path id="handle-rectangle-3" d="M342.076 381.686L342.076 377.119L301.979 377.119L301.979 381.686L342.076 381.686Z" fill="#2C2A36"/>
<path id="light-shadow-2" d="M293.633 373.344L293.633 367.767C316.149 367.696 338.664 367.625 361.179 367.552L361.179 373.273L293.633 373.344Z" fill="#96ACBE"/>
<path id="handle-rectangle-2" d="M342.076 370.54L342.076 365.973L301.979 365.973L301.979 370.54L342.076 370.54Z" fill="#2C2A36"/>
</g>
<g id="light-saber-bottom-part-3">
<path id="charger" d="M387.586 393.264L387.586 389.906C387.586 387.419 385.569 385.403 383.081 385.403L364.154 385.403C361.666 385.403 359.649 387.419 359.649 389.906L359.649 393.264C359.649 395.751 361.666 397.767 364.154 397.767L383.081 397.767C385.569 397.767 387.586 395.751 387.586 393.264Z" fill="#96ACBE" stroke="#231F20" stroke-width="0.78" stroke-miterlimit="10"/>
<path id="charger-shadow" opacity="0.72" d="M360.27 392.707L360.27 389.97C360.249 389.531 360.319 389.092 360.476 388.681C360.696 388.158 360.991 387.67 361.352 387.233V387.233C361.352 387.233 379.404 387.233 385.866 387.233C386.149 387.536 386.385 387.879 386.567 388.252C386.694 388.495 386.795 388.751 386.869 389.015C386.94 389.269 386.978 389.531 386.981 389.795C386.981 391.116 386.981 392.978 386.981 392.978C386.981 392.978 372.781 392.771 360.27 392.707Z" fill="#5F727E"/>
<path id="shadow-next-to-charger" d="M387.005 387.606L387.005 359.421L361.179 359.421L361.179 387.606L387.005 387.606Z" fill="#5C5A71" stroke="#231F20" stroke-width="0.75" stroke-miterlimit="10"/>
<path id="dark-shadow-2" d="M386.407 373.156L386.407 367.552L361.805 367.552L361.805 373.156L386.407 373.156Z" fill="#2C2C37"/>
</g>
<g id="light-saber-bottom-part-2">
<path id="handle-1" d="M387.005 387.606L387.005 359.663L422.67 359.393L422.67 364.108C422.67 364.108 426.188 364.19 432.689 364.339L434.186 367.369L435.609 370.239L435.609 387.606L387.005 387.606Z" fill="#B3BFC9" stroke="#231F20" stroke-width="0.75" stroke-miterlimit="10"/>
<path id="light-shadow-1" d="M387.005 373.156L387.005 367.583L433.521 367.552L435.007 370.551L435.007 373.09C419.009 373.103 403.008 373.125 387.005 373.156Z" fill="#96ACBE"/>
</g>
<g id="light-saber-bottom-part-1">
<path id="top-of-saber" d="M457.94 385.457L474.662 357.014L475.542 355.525L397.63 355.525L397.63 364.105C407.425 364.183 417.224 364.259 427.025 364.335L435.597 370.235L435.597 387.602L456.666 387.602L457.94 385.457Z" fill="#454557" stroke="#231F20" stroke-width="0.75" stroke-miterlimit="10"/>
<path id="on-switch" d="M460.927 355.525L460.927 349L452.444 349L452.444 355.525L460.927 355.525Z" fill="#767782" stroke="#231F20" stroke-width="0.75" stroke-miterlimit="10"/>
<path id="off-switch" d="M433.678 355.525L433.678 349L425.195 349L425.195 355.525L433.678 355.525Z" fill="#767782" stroke="#231F20" stroke-width="0.75" stroke-miterlimit="10"/>
<path id="dark-shadow-1" d="M434.487 368.769L427.224 363.75L470.277 363.282L467.032 368.785C456.184 368.777 445.335 368.772 434.487 368.769Z" fill="#2C2C37"/>
</g>
</g>
<g id="lightsaber">
<path id="saber-glow" d="M371.778 111.324C371.726 110.07 371.928 108.818 372.372 107.644C372.816 106.47 373.493 105.397 374.362 104.492C375.231 103.586 376.273 102.865 377.428 102.373C378.582 101.88 379.824 101.627 381.079 101.627C382.334 101.627 383.576 101.88 384.73 102.373C385.884 102.865 386.927 103.586 387.796 104.492C388.665 105.397 389.341 106.47 389.785 107.644C390.229 108.818 390.432 110.07 390.38 111.324V479.773L395.456 482.75V107.296C395.447 104.833 394.466 102.474 392.725 100.732C390.984 98.9905 388.625 98.0084 386.163 98H376.329C373.867 98.0084 371.508 98.9905 369.767 100.732C368.026 102.474 367.044 104.833 367.036 107.296V466.067L371.81 468.869L371.778 111.324Z" fill="#E07D93"/>
<path id="saber-main-light" d="M371.778 468.869V111.324C371.726 110.069 371.928 108.818 372.372 107.644C372.816 106.469 373.493 105.397 374.362 104.492C375.231 103.586 376.273 102.865 377.428 102.373C378.582 101.88 379.824 101.626 381.079 101.626C382.334 101.626 383.576 101.88 384.73 102.373C385.884 102.865 386.927 103.586 387.796 104.492C388.665 105.397 389.341 106.469 389.785 107.644C390.229 108.818 390.432 110.069 390.38 111.324V479.773L371.778 468.869Z" fill="#E83A39" stroke="#870A0A" stroke-miterlimit="10"/>
<g id="light-saber-bottom-breakable-parts">
<g id="light-saber-bottom-part-4_2">
<path id="handle-rectangle-1_2" d="M369.616 598.466H365.049V638.563H369.616V598.466Z" fill="#2C2A36"/>
<path id="handle-rectangle-4_2" d="M402.173 598.466H397.606V638.563H402.173V598.466Z" fill="#2C2A36"/>
<path id="handle-2_2" d="M397.606 647.542H369.663L369.393 597.508L369.421 579.355H397.606V647.542Z" fill="#B3BFC9" stroke="#231F20" stroke-width="0.75" stroke-miterlimit="10"/>
<path id="handle-rectangle-3_2" d="M391.686 598.466H387.119V638.563H391.686V598.466Z" fill="#2C2A36"/>
<path id="light-shadow-2_2" d="M383.344 646.909H377.767C377.696 624.393 377.625 601.878 377.552 579.363H383.273L383.344 646.909Z" fill="#96ACBE"/>
<path id="handle-rectangle-2_2" d="M380.54 598.466H375.973V638.563H380.54V598.466Z" fill="#2C2A36"/>
</g>
<g id="light-saber-bottom-part-3_2">
<path id="charger_2" d="M403.861 553H400.503C398.016 553 396 555.017 396 557.505V576.432C396 578.92 398.016 580.937 400.503 580.937H403.861C406.348 580.937 408.364 578.92 408.364 576.432V557.505C408.364 555.017 406.348 553 403.861 553Z" fill="#96ACBE" stroke="#231F20" stroke-width="0.78" stroke-miterlimit="10"/>
<path id="charger-shadow_2" opacity="0.72" d="M403.717 580.996H400.859C400.4 581.018 399.941 580.944 399.512 580.779C398.966 580.55 398.457 580.24 398 579.862V579.862C398 579.862 398 560.942 398 554.168C398.316 553.872 398.675 553.624 399.064 553.434C399.318 553.301 399.585 553.194 399.861 553.117C400.127 553.043 400.401 553.003 400.676 553C402.055 553 404 553 404 553C404 553 403.784 567.882 403.717 580.996Z" fill="#5F727E"/>
<path id="shadow-next-to-charger_2" d="M397.606 553.537H369.421V579.363H397.606V553.537Z" fill="#5C5A71" stroke="#231F20" stroke-width="0.75" stroke-miterlimit="10"/>
<path id="dark-shadow-2_2" d="M383.156 554.135H377.552V578.737H383.156V554.135Z" fill="#2C2C37"/>
</g>
<g id="light-saber-bottom-part-2_2">
<path id="handle-1_2" d="M397.606 553.537H369.663L369.393 517.872H374.108C374.108 517.872 374.19 514.354 374.339 507.853L377.369 506.356L380.239 504.933H397.606V553.537Z" fill="#B3BFC9" stroke="#231F20" stroke-width="0.75" stroke-miterlimit="10"/>
<path id="light-shadow-1_2" d="M383.156 553.537H377.583L377.552 507.021L380.551 505.535H383.09C383.103 521.533 383.125 537.534 383.156 553.537Z" fill="#96ACBE"/>
</g>
<g id="light-saber-bottom-part-1_2">
<path id="top-of-saber_2" d="M395.457 482.602L367.014 465.88L365.525 465V542.912H374.105C374.183 533.117 374.259 523.318 374.335 513.517L380.235 504.945H397.602V483.876L395.457 482.602Z" fill="#454557" stroke="#231F20" stroke-width="0.75" stroke-miterlimit="10"/>
<path id="on-switch_2" d="M365.525 479.615H359V488.098H365.525V479.615Z" fill="#767782" stroke="#231F20" stroke-width="0.75" stroke-miterlimit="10"/>
<path id="off-switch_2" d="M365.525 506.864H359V515.347H365.525V506.864Z" fill="#767782" stroke="#231F20" stroke-width="0.75" stroke-miterlimit="10"/>
<path id="dark-shadow-1_2" d="M378.769 506.055L373.75 513.318L373.282 470.265L378.785 473.51C378.777 484.358 378.772 495.207 378.769 506.055Z" fill="#2C2C37"/>
</g>
</g>
</g>
<g id="wand">
<path id="yellow-circle" d="M380.937 173C428.157 173 466.437 134.72 466.437 87.5C466.437 40.2797 428.157 2 380.937 2C333.717 2 295.437 40.2797 295.437 87.5C295.437 134.72 333.717 173 380.937 173Z" fill="#9C9C70" fill-opacity="0.15"/>
<path id="background-of-text" d="M386.547 543.785L373.169 544.383C373.415 528.356 373.655 512.329 373.889 496.302C373.848 495.59 373.961 494.879 374.22 494.216C374.479 493.552 374.877 492.952 375.389 492.457C377.664 490.53 382.802 491.525 387.421 495.946L386.547 543.785Z" fill="#B79E6B"/>
<path id="top-of-wand" d="M387.382 496.963C385.96 496.437 384.499 496.024 383.012 495.73C381.003 495.506 378.989 495.537 376.927 495.521C376.755 495.518 376.587 495.475 376.435 495.397C375.381 494.819 374.525 494.898 373.889 496.301C373.14 495.428 372.496 494.581 371.749 493.82C368.953 490.963 366.848 487.737 366.929 483.481C366.972 482.096 366.959 480.712 367.059 479.327C367.432 475.113 366.833 470.697 368.451 466.596C369.31 464.427 370.339 462.331 371.435 460.225C372.97 457.254 373.887 454.002 374.131 450.666C375.04 441.986 375.253 433.246 374.767 424.531C374.172 417.489 374.527 410.422 374.534 403.352C374.531 397.44 374.434 391.51 374.78 385.621C375.201 380.862 374.974 376.067 374.104 371.368C373.395 368.272 371.955 365.451 371.237 362.402C370.736 359.709 370.405 356.988 370.247 354.255C370.201 353.747 370.399 353.198 370.334 352.691C369.95 349.432 370.741 346.146 372.564 343.421C375.453 338.698 375.884 333.429 376.194 328.19C376.428 323.526 376.136 318.871 376.238 314.171C376.419 302.824 376.742 291.465 376.867 280.119C376.91 276.061 376.737 272.003 376.348 267.963C376.065 266.082 375.475 264.259 374.602 262.567C372.788 258.697 372.759 254.63 372.607 250.537C372.661 247.248 373.269 243.992 374.408 240.907C375.933 235.349 376.691 229.608 376.661 223.842C376.956 209.622 377.185 195.412 377.583 181.2C377.647 177.01 377.24 172.826 376.371 168.725C375.604 164.629 375.618 160.425 376.413 156.335C378.339 145.677 378.511 134.914 378.522 124.125C378.524 115.011 378.686 105.905 378.734 96.7818C378.734 94.8856 378.612 92.9912 378.368 91.1104C378.248 90.6139 378.312 90.0907 378.549 89.6385C378.785 89.1862 379.179 88.8358 379.656 88.6526C380.237 88.379 380.877 88.2544 381.519 88.2901C382.161 88.3257 382.784 88.5205 383.332 88.8568C383.88 89.1932 384.336 89.6604 384.659 90.2166C384.982 90.7728 385.161 91.4004 385.181 92.0428C384.997 106.685 384.851 121.364 384.619 135.96C384.397 141.88 384.979 147.803 386.348 153.567C387.313 157.319 386.79 161.055 386.616 164.776C386.584 165.727 386.647 166.658 386.606 167.638C386.598 168.297 386.761 169.067 386.526 169.635C384.899 173.228 385.668 177.029 385.229 180.717C384.79 184.405 385.304 188.2 385.235 192.005C385.182 196.826 384.781 201.643 384.963 206.451C385.334 216.5 385.931 226.508 386.558 236.6C386.651 237.31 386.87 237.998 387.203 238.633C389.362 243.067 390.396 247.963 390.214 252.888C389.997 255.753 390.044 258.652 389.828 261.517C389.725 262.408 389.399 263.258 388.879 263.989C387.809 265.523 387.216 267.34 387.176 269.212L386.838 285.946C386.624 296.484 386.383 307.032 386.197 317.56C386.168 319.236 386.355 320.9 386.449 322.565C386.625 326.441 386.942 330.268 387.005 334.127C386.899 337.529 387.874 340.879 389.788 343.697C391.048 345.458 391.679 347.59 391.582 349.751C391.545 351.892 391.658 354.033 391.922 356.157C392.362 359.209 391.684 362.316 390.013 364.904C388.311 367.576 387.429 370.689 387.476 373.858C387.358 384.451 387.343 395.052 387.168 405.627C387.007 417.125 386.847 428.622 386.452 440.133C386.229 446.105 386.289 452.054 388.181 457.815C388.762 459.478 389.461 461.098 390.276 462.66C392.55 466.972 393.59 471.827 393.282 476.689C393.27 477.454 393.324 478.218 393.442 478.974C393.591 479.657 393.668 480.353 393.674 481.051C393.261 484.004 393.294 487.186 392.17 489.839C391.046 492.492 388.854 494.87 387.382 496.963Z" fill="url(#paint0_linear_40:3)"/>
<path id="bottom-of-wand" d="M386.454 542.713C387.06 548.673 387.564 554.125 388.199 559.557C388.556 564.106 389.206 568.628 390.143 573.094C391.03 576.149 392.454 579.023 394.349 581.579C396.415 584.493 397.581 587.948 397.703 591.517C397.843 594.32 397.635 597.138 397.737 599.942C397.867 603.292 398.252 606.628 398.353 609.969C398.285 611.289 398.063 612.598 397.692 613.867C397.412 615.133 396.26 615.517 395.29 616.078C394.642 616.471 393.968 616.821 393.274 617.125C388.354 619.139 389.267 617.967 389.188 623.504C389.14 626.885 389.666 630.247 388.467 633.532C388.424 633.709 388.418 633.892 388.448 634.071C388.479 634.251 388.545 634.422 388.645 634.574C390.14 636.209 389.52 638.016 389.23 639.847C388.866 641.118 388.794 642.454 389.021 643.757C390.008 646.567 389.435 649.513 389.576 652.391C389.653 654.226 389.59 656.11 389.592 657.964C389.656 658.437 389.648 658.916 389.568 659.386C388.108 663.918 390.228 668.066 390.948 672.357C391.081 673.161 391.379 673.93 391.823 674.613C395.444 680.141 396.429 686.245 396.403 692.742C396.573 695.823 396.111 698.906 395.045 701.8C394.73 702.449 394.276 703.022 393.717 703.477C392.343 704.703 390.855 705.818 389.492 707.072C388.129 708.326 388.186 710.142 388.572 711.849C390.23 719.356 393.051 726.559 396.933 733.197C397.897 734.782 398.712 736.453 399.369 738.188C400.205 740.406 399.739 741.27 397.437 742.096C393.658 743.592 389.65 744.426 385.586 744.563C379.563 744.673 373.56 744.34 367.87 741.79C367.249 741.55 366.654 741.246 366.094 740.885C364.313 739.622 363.917 738.405 364.863 736.413C365.81 734.422 367.086 732.435 368.287 730.468C371.923 724.291 374.294 717.451 375.264 710.347C375.331 709.875 375.314 709.395 375.344 708.924C375.437 708.266 375.307 707.595 374.975 707.019C374.643 706.442 374.129 705.992 373.512 705.742C371.594 704.716 369.544 703.749 368.596 701.57C368.222 700.861 367.983 700.089 367.89 699.293C367.57 694.685 366.572 690.106 367.136 685.465C367.234 683.77 367.539 682.093 368.043 680.471C370.603 674.167 372.236 667.525 372.889 660.75C372.931 660.466 372.955 660.179 372.96 659.892C372.883 654.038 372.812 648.177 372.747 642.309C372.717 640.427 372.852 638.372 372.859 636.452C372.843 634.899 372.572 633.34 372.604 631.795C372.66 629.46 372.866 627.141 373.035 624.803C373.126 623.427 373.254 622.051 373.335 620.666C373.409 620.07 373.265 619.468 372.93 618.97C372.594 618.471 372.091 618.111 371.511 617.954C369.448 617.205 367.436 616.32 365.489 615.306C362.981 613.913 361.422 611.846 362.087 608.729C362.243 607.917 361.899 607.009 361.932 606.171C362.009 603.411 362.171 600.66 362.23 597.9C362.294 595.48 362.291 593.051 362.252 590.623C362.12 588.816 362.386 587.003 363.032 585.311C363.678 583.619 364.687 582.09 365.989 580.832C367.101 579.66 367.948 578.264 368.474 576.736C369.738 573.812 370.388 570.659 370.384 567.472C370.466 565.043 370.754 562.627 371.245 560.247C371.803 555.842 372.371 551.428 372.911 547.042C372.997 546.093 373.016 545.14 372.968 544.188C372.953 543.247 373.208 542.735 374.328 542.671C375.447 542.607 376.889 542.114 378.185 541.963C378.818 541.961 379.448 542.053 380.054 542.236C380.224 542.271 380.387 542.428 380.547 542.435L386.454 542.713Z" fill="url(#paint1_linear_40:3)"/>
</g>
<g id="sun">
<g id="orange-ray-9">
<path id="outside" d="M193.713 479.771C219.315 475.503 241.916 471.005 264.747 468.511C269.525 467.991 275.114 474.86 280.32 478.318C279.968 479.175 279.601 480.016 279.233 480.873L173.577 485.922L242.483 421.175C248.608 428.427 247.077 434.072 239.099 440.345C226.573 450.198 214.175 460.209 201.905 470.378C199.087 472.673 197.112 475.87 193.713 479.771Z" fill="#F2C105"/>
<path id="inside" d="M248.531 438.937L265.161 463.677L211.398 472.03L210.082 469.506L248.531 438.937Z" fill="#F2C105"/>
</g>
<g id="orange-ray-8">
<path id="outside_2" d="M276.737 590.937C273.675 571.583 286.399 496.937 293.259 490.665C303.626 495.254 304.392 497.733 301.972 510.554C299.446 523.88 297.547 537.328 295.526 550.73C295.325 554.103 295.325 557.485 295.526 560.858C302.493 552.979 307.668 546.966 313.013 541.137C319.888 533.625 327.268 526.542 333.73 518.708C338.508 512.925 343.377 512.267 349.747 515.205C353.407 516.918 357.403 517.944 362.503 519.703C336.931 547.211 306.949 568.585 276.737 590.937Z" fill="#F2C105"/>
<path id="inside_2" d="M302.477 542.499C304.284 529.418 306.076 516.337 308.051 502.032L333.546 512.619L305.218 543.662L302.477 542.499Z" fill="#F2C105"/>
</g>
<g id="orange-ray-7">
<path id="outside_3" d="M441.393 574.628C442.112 566.137 442.924 560.262 443.092 554.356C443.644 540.036 444.394 525.716 444.195 511.395C444.088 503.394 448.789 501.129 456.445 498.452C453.045 533.641 449.753 567.575 446.461 601.539L442.878 602.733L378.06 520.208C386.88 516.72 392.102 516.765 396.604 522.656C406.832 536.073 417.138 549.43 427.795 562.526C430.995 566.488 435.375 569.395 441.393 574.628Z" fill="#F2C105"/>
<path id="inside_3" d="M398.15 518.831C412.207 515.021 423.079 512.16 433.905 509.085C437.411 508.091 440.366 507.341 440.213 512.543C439.754 527.914 439.244 543.284 438.682 558.655C438.296 561.078 437.738 563.471 437.013 565.815L398.15 518.831Z" fill="#F2C105"/>
</g>
<g id="orange-ray-6">
<path id="outside_4" d="M602.174 473.973C563.678 478.089 526.04 476.666 487.636 472.596C490.025 466.599 492.72 463.126 499.764 462.407C523.414 459.794 547.325 460.826 570.661 465.467C573.05 465.971 575.745 465.038 578.317 464.763L579.435 461.81C561.841 447.704 544.354 433.46 526.576 419.584C521.202 415.392 519.502 411.031 522.472 403.841C554.001 422.338 575.561 450.703 602.174 473.973Z" fill="#F2C105"/>
<path id="inside_4" d="M519.211 419.767C535.121 432.359 550.357 444.445 566.68 457.45H499.611L519.211 419.767Z" fill="#F2C105"/>
</g>
<g id="orange-ray-5">
<path id="outside_5" d="M580.645 328.307C574.734 327.114 568.823 324.942 562.913 324.942C549.04 324.942 535.151 325.905 521.278 326.624C509.396 327.252 509.396 327.344 505.46 313.62L606.783 320L525.014 393.881C520.957 379.469 523.805 373.104 538.107 362.502C547.815 355.296 557.171 347.6 566.863 340.379C571.319 337.059 576.219 334.259 580.905 331.337C580.828 330.296 580.737 329.287 580.645 328.307Z" fill="#F2C105"/>
<path id="inside_5" d="M524.968 369.203C520.972 355.097 517.725 343.668 514.02 330.602H573.555L524.968 369.203Z" fill="#F2C105"/>
</g>
<g id="orange-ray-4">
<path id="outside_6" d="M443.996 238.561C451.147 233.971 458.665 229.856 465.433 224.669C477.316 215.49 488.678 205.606 500.331 196.105C502.574 194.444 504.911 192.912 507.328 191.515L510.085 192.648C504.409 226.388 498.707 260.179 492.981 294.021C480.179 284.842 479.858 282.287 482.415 269.022C485.294 254.044 488.387 239.097 491.128 224.103C491.465 222.252 490.24 220.11 489.152 215.826L443.368 257.777L430.107 252.621L444.256 238.27L443.996 238.561Z" fill="#F2C105"/>
<path id="inside_6" d="M448.758 259.996C469.659 235.517 476.979 228.907 486.518 226.337C483.288 243.656 480.179 260.455 476.841 278.355L448.758 259.996Z" fill="#F2C105"/>
</g>
<g id="orange-ray-3">
<path id="outside_7" d="M408.7 245.568C385.104 244.038 386.65 243.885 381.138 224.899C377.8 213.409 373.681 202.133 369.699 190.842C369.24 189.511 367.433 188.67 365.305 186.742C362.579 195.922 360.328 203.969 357.648 211.986C353.897 223.445 350.344 234.935 345.643 246.088C344.541 248.674 339.197 249.454 335.797 251.061L333.393 249.087L360.588 157.551L364.631 157L408.7 245.568Z" fill="#F2C105"/>
<path id="inside_7" d="M368.842 199.548C372.915 213.715 376.988 227.867 381.383 243.074L350.941 246.134C356.347 229.871 361.323 214.893 366.254 199.915L368.842 199.548Z" fill="#F2C105"/>
</g>
<g id="orange-ray-2">
<path id="outside_8" d="M259.893 309.275C246.388 281.246 232.872 253.198 219.346 225.128L220.632 222.757L313.717 258.297C305.984 267.599 298.404 269.573 289.936 265.534C278.743 260.179 267.917 254.044 256.938 248.246C253.707 246.532 250.491 244.773 247.276 243.044L245.117 244.574C246.479 248.659 247.689 252.79 249.22 256.813C254.519 270.72 260.261 284.49 265.038 298.581C266.018 301.457 263.507 305.481 262.665 308.984L259.893 309.275Z" fill="#F2C105"/>
<path id="inside_8" d="M253.875 254.121L293.688 272.296L269.311 295.613C264.273 282.088 259.403 268.976 253.875 254.121Z" fill="#F2C105"/>
</g>
<g id="orange-ray-1">
<path id="outside_9" d="M238.9 401.745L155.768 356.871C155.768 355.999 155.768 355.143 155.768 354.271C167.742 351.211 179.625 347.707 191.707 345.198C206.652 342.138 221.734 339.614 236.833 337.319C239.007 336.982 241.564 339.185 243.938 340.226C241.595 344.005 239.895 350.308 236.802 351.104C227.109 353.551 216.896 353.934 206.881 355.097C199.837 355.923 192.794 356.627 185.75 357.468L184.647 360.666C189.333 363.282 193.835 366.388 198.735 368.422C207.279 371.926 216.176 374.542 224.766 377.969C239.528 383.86 239.987 384.716 238.9 401.745Z" fill="#F2C105"/>
<path id="inside_9" d="M239.88 359.059C238.854 365.439 238.165 369.646 237.445 374.129C224.169 374.496 213.359 370.044 202.226 360.773L239.88 359.059Z" fill="#F2C105"/>
</g>
<g id="yellow-ray-9">
<path id="outside_10" d="M170.055 403.55C195.428 409.027 218.105 413.188 240.247 419.293C244.841 420.563 247.521 429.008 251.089 434.149L249.175 436.107L149 401.744L237.001 367C240.064 376.011 236.511 380.692 226.757 383.569C211.444 388.097 196.224 392.825 181.095 397.751C177.665 398.929 174.603 401.148 170.055 403.55Z" fill="#F2E405"/>
<path id="inside_10" d="M236.098 385.818C238.18 395.426 240.156 404.59 242.406 414.887L189.349 402.815C189.257 401.882 189.165 400.934 189.058 399.985L236.098 385.818Z" fill="#F2E405"/>
</g>
<g id="yellow-ray-8">
<path id="outside_11" d="M206.131 537.481C210.465 518.387 249.833 453.686 258.531 450.381C266.447 458.505 266.187 461.091 259.296 472.045C252.023 483.505 245.285 495.3 238.456 507.02C237.216 509.116 236.588 511.61 234.658 516.398C244.045 511.655 251.073 507.984 258.194 504.526C267.381 500.074 276.844 496.218 285.756 491.323C292.325 487.712 297.103 488.89 301.926 493.985C304.713 496.907 308.051 499.339 312.124 502.858C278.268 519.06 242.483 527.858 206.131 537.481Z" fill="#F2E405"/>
<path id="inside_11" d="M247.965 501.986L268.086 466.415L287.869 485.662L250.078 504.021L247.965 501.986Z" fill="#F2E405"/>
</g>
<g id="yellow-ray-7">
<path id="outside_12" d="M365.167 583.119C368.995 575.469 371.843 570.298 374.232 564.913C380.035 551.801 386.038 538.766 391.076 525.379C393.924 517.913 399.084 517.515 407.276 517.898L359.899 610.015L356.132 609.801C346.332 576.663 336.548 543.524 326.396 509.192C335.874 509.192 340.713 511.166 342.719 518.372C347.312 534.605 351.906 550.837 356.975 566.917C358.536 571.66 361.538 575.974 365.167 583.119Z" fill="#F2E405"/>
<path id="inside_12" d="M345.643 515.266C360.114 516.903 371.276 518.249 382.393 519.382C386.038 519.749 389.054 520.162 386.987 524.935C380.862 539.041 374.737 553.142 368.612 567.238C367.365 569.345 365.968 571.359 364.432 573.266C357.893 552.979 351.891 534.605 345.643 515.266Z" fill="#F2E405"/>
</g>
<g id="yellow-ray-6">
<path id="outside_13" d="M551.796 548.818C514.525 538.445 480.057 523.237 445.879 505.291C450.32 500.609 454.087 498.36 460.916 500.288C483.851 506.617 505.68 516.42 525.642 529.357C527.679 530.688 530.527 530.887 533.007 531.514L535.136 529.189C523.988 509.59 513.009 489.9 501.617 470.454C498.156 464.564 498.202 459.882 503.607 454.298C526.117 483.076 535.656 517.439 551.796 548.818Z" fill="#F2E405"/>
<path id="inside_13" d="M494.742 467.838L524.999 520.407L462.601 495.637L494.742 467.838Z" fill="#F2E405"/>
</g>
<g id="yellow-ray-5">
<path id="outside_14" d="M585.637 405.478C580.584 402.188 575.898 397.996 570.324 395.808C557.431 390.698 544.17 386.46 531.002 382.039C519.732 378.229 519.701 378.321 521.11 364.108L612.908 407.405L509.641 445.914C511.172 431.028 516.179 426.162 533.39 421.573C545.074 418.513 556.604 414.764 568.288 411.628C573.662 410.19 579.221 409.455 584.687 408.4L585.637 405.478Z" fill="#F2E405"/>
<path id="inside_14" d="M518.767 422.98C520.298 408.384 521.477 396.573 522.855 383.064L578.179 405.019L518.767 422.98Z" fill="#F2E405"/>
</g>
<g id="yellow-ray-4">
<path id="outside_15" d="M491.786 271.7C500.132 270.078 508.63 269.022 516.776 266.681C531.216 262.52 545.411 257.502 559.758 253.004C562.451 252.311 565.181 251.775 567.935 251.397L570.079 253.463C552.317 282.715 534.534 312.019 516.73 341.373C508.232 328.063 508.86 325.615 516.133 314.232C524.356 301.365 532.747 288.636 540.832 275.693C541.843 274.163 541.475 271.669 542.057 267.278L484.099 289.34L473.687 279.655L492.138 271.547L491.786 271.7Z" fill="#F2E405"/>
<path id="inside_15" d="M488.28 293.379C516.746 278.34 526.01 274.882 535.84 275.968L507.619 320.78L488.28 293.379Z" fill="#F2E405"/>
</g>
<g id="yellow-ray-3">
<path id="outside_16" d="M456.399 265.182C434.961 255.069 436.492 255.482 438.407 235.807C439.555 223.904 439.938 211.91 440.382 199.945C440.382 198.538 439.065 197.084 437.809 194.514C431.914 201.965 426.815 208.681 421.425 215.168C413.769 224.44 406.112 233.879 397.66 242.432C395.685 244.421 390.417 243.181 386.666 243.411L385.134 240.672L444.225 165.705L448.191 166.7C450.84 198.767 453.535 230.927 456.399 265.182Z" fill="#F2E405"/>
<path id="inside_16" d="M436.355 207.717L431.929 252.805L402.499 244.451L433.844 207.151L436.355 207.717Z" fill="#F2E405"/>
</g>
<g id="yellow-ray-2">
<path id="outside_17" d="M294.561 269.512L287.946 176.4L290.013 174.686L363.391 242.003C352.764 247.787 345.016 246.807 338.615 239.938C330.193 230.758 322.399 221.15 314.345 211.695C311.956 208.972 309.644 206.157 307.362 203.357L304.805 203.954C304.56 208.253 304.162 212.537 304.1 216.821C303.886 231.707 304.101 246.624 303.366 261.48C303.212 264.539 299.43 267.339 297.24 270.277L294.561 269.512Z" fill="#F2E405"/>
<path id="inside_17" d="M309.353 216.025L339.641 247.603L308.357 260.286C308.679 245.859 309.001 231.921 309.353 216.025Z" fill="#F2E405"/>
</g>
<g id="yellow-ray-1">
<path id="outside_18" d="M240.875 347.692L180.146 275.31L181.11 272.893C193.36 274.423 205.702 275.601 217.86 277.712C232.897 280.328 247.842 283.603 262.711 287.045C264.855 287.534 266.416 290.518 268.239 292.354C264.671 295.016 260.766 300.248 257.52 299.835C247.613 298.535 237.981 295.138 228.242 292.522L207.831 286.999L205.626 289.539C209.01 293.715 212.026 298.244 215.855 301.947C222.485 308.372 229.789 314.079 236.496 320.428C248.072 331.367 248.118 332.255 240.875 347.692Z" fill="#F2E405"/>
<path id="inside_18" d="M257.566 308.418L249.726 321.514C237.261 316.925 228.855 308.831 221.888 296.072L257.566 308.418Z" fill="#F2E405"/>
</g>
<path id="sun-stroke-outline" d="M381.689 520.269C460 520.269 523.483 458.217 523.483 381.672C523.483 305.127 460 243.074 381.689 243.074C303.378 243.074 239.895 305.127 239.895 381.672C239.895 458.217 303.378 520.269 381.689 520.269Z" stroke="#F2C105" stroke-width="8" stroke-miterlimit="10"/>
<path id="yellow-circle_2" d="M381.383 497.32C445.308 497.32 497.13 445.542 497.13 381.672C497.13 317.801 445.308 266.024 381.383 266.024C317.457 266.024 265.635 317.801 265.635 381.672C265.635 445.542 317.457 497.32 381.383 497.32Z" fill="#F2E405"/>
</g>
<path id="bird" d="M245.779 412.143C246.906 410.359 248.15 408.652 249.502 407.032C254.42 401.166 257.385 400.571 259.66 396.758C262.581 391.877 261.609 386.3 261.312 384.554C260.023 377.134 254.619 372.786 250.194 368.541C235.429 354.224 228.046 347.06 226.745 345.235C216.563 330.886 224.412 309.032 232.695 285.993C243.104 257.028 256.776 244.546 269.053 221.534C271.207 217.289 273.957 213.375 277.218 209.911C281.651 205.288 282.799 205.95 287.713 201.288C295.505 193.884 295.756 189.153 301.95 187.121C302.863 186.823 307.519 185.398 309.207 187.432C310.655 189.179 309.67 193.144 306.392 197.119C307.281 196.989 308.187 197.182 308.948 197.662C312.337 200.034 309.429 209.079 307.687 216.983C305.785 225.698 304.9 234.606 305.048 243.525C306.507 243.905 307.773 244.818 308.597 246.085C309.941 248.308 309.123 251.15 307.546 256.317C306.985 258.194 306.417 259.698 306.027 260.668C306.489 260.514 306.979 260.464 307.461 260.522C307.944 260.581 308.408 260.745 308.82 261.005C312.25 263.559 306.453 276.174 305.703 277.719C308.128 277.125 309.305 277.657 309.778 278.11C312.093 280.063 310.621 286.414 306.293 294.171C307.705 294.188 309.093 294.544 310.339 295.211C314.396 297.407 316.461 302.959 315.734 309.27C316.905 309.146 318.087 309.346 319.152 309.849C321.939 311.172 323.552 314.683 323.297 318.668C324.981 319.199 326.498 320.16 327.7 321.456C328.645 322.528 329.369 323.777 329.83 325.131C330.291 326.485 330.479 327.918 330.385 329.346C331.576 329.572 332.674 330.147 333.541 330.997C336.117 333.587 335.022 337.571 334.978 337.75C335.907 338.229 336.702 338.933 337.29 339.799C337.775 340.567 338.101 341.426 338.248 342.323C338.395 343.22 338.36 344.138 338.145 345.022L342.136 347.36C351.241 341.149 360.879 335.763 370.936 331.267C391.719 322.039 413.989 316.648 436.678 315.351C441.95 308.886 448.546 303.633 456.019 299.947C458.163 298.908 459.996 298.686 462.99 297.13C469.407 293.795 471.279 290.446 476.681 285.599C483.106 279.858 493.409 272.935 496.319 275.298C496.898 275.769 497.453 276.827 496.976 279.551C501.232 273.564 504.039 270.876 505.396 271.488C506.008 271.767 506.302 272.73 506.279 274.402C509.462 269.821 513.326 264.788 514.748 265.475C516.722 266.426 513.21 278.093 511.112 283.37C507.721 291.938 498.014 309.019 465.522 322.27C463.679 325.137 461.214 327.549 458.31 329.325C455.406 331.102 452.139 332.195 448.754 332.525C447.898 334.695 446.671 336.699 445.128 338.447C442.331 341.561 438.661 343.756 434.601 344.746C433.276 346.936 431.778 349.017 430.123 350.968C428.707 352.64 427.176 354.211 425.542 355.669C425.395 357.615 424.974 359.529 424.29 361.356C420.918 370.321 412.191 374.074 409.737 375.076C409.041 377.996 407.623 380.693 405.616 382.92C403.608 385.147 401.075 386.832 398.249 387.82C397.698 391.027 396.307 394.03 394.219 396.52C392.13 399.01 389.419 400.899 386.363 401.992C385.968 403.599 385.21 405.094 384.148 406.361C383.409 407.268 382.525 408.043 381.53 408.656C381.887 409.552 382.036 410.518 381.965 411.48C381.895 412.442 381.607 413.376 381.124 414.21C380.458 415.247 379.483 416.048 378.338 416.497C376.915 419.612 375.209 422.588 373.242 425.389C371.88 427.332 370.393 429.186 368.793 430.938C379.818 438.544 389.771 447.605 398.385 457.877C420.945 484.851 422 506.113 441.694 538.933C451.602 555.379 463.541 570.505 477.228 583.95C466.937 580.737 458.12 573.961 452.351 564.83C449.282 561.787 446.218 558.65 443.157 555.422C436.522 548.458 430.317 541.537 424.538 534.743C420.675 533.521 417.098 531.531 414.021 528.89C410.943 526.25 408.428 523.014 406.626 519.376C404.849 519.847 402.967 519.707 401.279 518.981C399.59 518.254 398.193 516.982 397.309 515.366C395.782 516.436 393.991 517.063 392.132 517.178C391.184 517.238 390.233 517.149 389.312 516.912C388.642 517.752 387.72 518.353 386.683 518.629C385.727 518.881 384.717 518.837 383.785 518.504C383.002 519.239 382.053 519.772 381.019 520.058C379.657 520.433 378.213 520.371 376.888 519.881C376.462 521.585 375.535 523.122 374.227 524.292C372.579 525.706 370.474 526.471 368.305 526.444C367.593 528.175 366.743 529.845 365.763 531.438C364.65 533.274 363.371 535.003 361.942 536.605C362.209 539.779 361.35 542.947 359.518 545.55C358.606 546.793 357.475 547.858 356.18 548.692C355.314 550.629 354.288 552.489 353.11 554.253C351.477 556.69 349.574 558.934 347.437 560.941C349.253 546.578 353.054 516.15 355.075 494.78C355.36 492.093 355.428 489.388 355.279 486.69C354.455 471.503 347.09 459.743 341.159 452.292C332.74 454.535 323.918 454.803 315.38 453.075C306.373 451.1 297.535 448.419 288.947 445.056C284.172 443.107 279.316 440.816 275.837 443.05C273.098 444.797 272.472 448.489 272.168 450.257C271.168 456.231 273.435 460.721 275.196 465.249C277.734 471.845 279.417 478.74 280.205 485.766L316.642 546.646L305.027 534.956L311.315 548.608C308.108 545.065 303.003 539.358 296.882 532.151C279.478 511.668 279.854 509.615 271.98 503.272C264.351 497.108 259.887 495.737 250.221 486.693C246.197 482.91 243.103 479.528 241.032 477.189C240.137 477.43 239.193 477.419 238.304 477.156C237.416 476.892 236.617 476.387 235.997 475.697C235.542 475.138 235.209 474.489 235.02 473.793C234.831 473.097 234.79 472.368 234.899 471.655C233.773 471.148 232.813 470.331 232.133 469.298C231.229 467.854 230.904 466.12 231.225 464.445C228.838 461.925 226.931 458.988 225.599 455.78C224.076 452.106 223.323 448.158 223.385 444.18L225.327 447.296L223.909 435.887L226.412 440.471L227.251 428.473L228.977 432.699C229.999 427.52 231.021 422.349 232.042 417.186L234.208 418.723L232.083 405.045L233.967 405.607C234.24 404.283 234.512 402.959 234.773 401.634L242.44 412.518C242.497 411.184 242.662 409.867 242.767 408.536L245.779 412.143Z" fill="#F2C105"/>
<g id="arrow">
<path id="small-right-fletching" d="M517.491 424.142L479.311 439.989L488.437 443.693L529.058 429.956L517.491 424.142Z" fill="#F2C105" stroke="#7F4C1D" stroke-width="0.76" stroke-miterlimit="10"/>
<path id="big-left-fletching" d="M584.269 393.645L532.768 414.467L559.955 383.412L598.561 371.368L584.269 393.645Z" fill="#F2C105" stroke="#7F4C1D" stroke-width="0.76" stroke-miterlimit="10"/>
<path id="shaft" d="M570.111 399.198L223.196 533.261L225.059 538.073L571.973 404.009L570.111 399.198Z" fill="#7F4C1D"/>
<path id="yellow-head" d="M224.574 535.697L156.216 560.24L206.691 523.505C210.505 523.797 214.176 525.084 217.316 527.228C220.456 529.373 222.95 532.297 224.534 535.691L224.574 535.697Z" fill="#F6C20F" stroke="#7F4C1D" stroke-width="0.76" stroke-miterlimit="10"/>
<path id="orange-head" d="M224.351 534.146L156 561.88L219.685 555.814C222.252 552.959 224.039 549.445 224.858 545.641C225.678 541.838 225.5 537.886 224.343 534.201L224.351 534.146Z" fill="#C3610C" stroke="#7F4C1D" stroke-width="0.76" stroke-miterlimit="10"/>
<path id="small-left-fletching" d="M515.786 419.958L480.067 434.243C481.234 431.589 482.414 428.936 483.58 426.282L520.285 407.813L515.786 419.958Z" fill="#F2C105" stroke="#7F4C1D" stroke-width="0.76" stroke-miterlimit="10"/>
<path id="big-right-fletching" d="M586.237 398.132L535.619 418.182L575.259 422.039L610.901 404.451L586.237 398.132Z" fill="#F2C105" stroke="#7F4C1D" stroke-width="0.76" stroke-miterlimit="10"/>
</g>
</g>
<defs>
<linearGradient id="paint0_linear_40:3" x1="264.16" y1="273.561" x2="550.163" y2="320.316" gradientUnits="userSpaceOnUse">
<stop offset="0.32" stop-color="#6D4C43"/>
<stop offset="0.43" stop-color="#897366"/>
<stop offset="0.57" stop-color="#594139"/>
</linearGradient>
<linearGradient id="paint1_linear_40:3" x1="397.08" y1="643.212" x2="370.48" y2="643.553" gradientUnits="userSpaceOnUse">
<stop stop-color="#3B3738"/>
<stop offset="0.53" stop-color="#453C3B"/>
<stop offset="0.98" stop-color="#3C3533"/>
</linearGradient>
<clipPath id="clip0_40:3">
<rect width="768" height="768" fill="white"/>
</clipPath>
<clipPath id="clip1_40:3">
<rect width="426" height="426" fill="white" transform="translate(171 171)"/>
</clipPath>
</defs>
</svg>
