<svg width="208" height="207" viewBox="0 0 208 207" fill="none" xmlns="http://www.w3.org/2000/svg">
<path d="M25.744 122.36C25.744 121.32 25.928 120.304 26.296 119.312C26.68 118.304 27.232 117.392 27.952 116.576C28.672 115.744 29.552 115.088 30.592 114.608C31.632 114.112 32.816 113.864 34.144 113.864C35.712 113.864 37.064 114.208 38.2 114.896C39.352 115.584 40.208 116.48 40.768 117.584L38.224 119.336C37.936 118.696 37.56 118.192 37.096 117.824C36.632 117.44 36.136 117.176 35.608 117.032C35.08 116.872 34.56 116.792 34.048 116.792C33.216 116.792 32.488 116.96 31.864 117.296C31.256 117.632 30.744 118.072 30.328 118.616C29.912 119.16 29.6 119.768 29.392 120.44C29.2 121.112 29.104 121.784 29.104 122.456C29.104 123.208 29.224 123.936 29.464 124.64C29.704 125.328 30.04 125.944 30.472 126.488C30.92 127.016 31.448 127.44 32.056 127.76C32.68 128.064 33.36 128.216 34.096 128.216C34.624 128.216 35.16 128.128 35.704 127.952C36.248 127.776 36.752 127.496 37.216 127.112C37.68 126.728 38.04 126.232 38.296 125.624L41.008 127.184C40.672 128.032 40.12 128.752 39.352 129.344C38.6 129.936 37.752 130.384 36.808 130.688C35.864 130.992 34.928 131.144 34 131.144C32.784 131.144 31.672 130.896 30.664 130.4C29.656 129.888 28.784 129.216 28.048 128.384C27.328 127.536 26.76 126.592 26.344 125.552C25.944 124.496 25.744 123.432 25.744 122.36ZM50.2902 131.12C49.0422 131.12 47.9062 130.88 46.8822 130.4C45.8742 129.92 45.0022 129.272 44.2662 128.456C43.5462 127.624 42.9862 126.696 42.5862 125.672C42.1862 124.632 41.9862 123.568 41.9862 122.48C41.9862 121.344 42.1942 120.264 42.6102 119.24C43.0422 118.2 43.6262 117.28 44.3622 116.48C45.1142 115.664 45.9942 115.024 47.0022 114.56C48.0262 114.08 49.1462 113.84 50.3622 113.84C51.5942 113.84 52.7142 114.088 53.7222 114.584C54.7462 115.08 55.6182 115.744 56.3382 116.576C57.0582 117.408 57.6182 118.336 58.0182 119.36C58.4182 120.384 58.6182 121.44 58.6182 122.528C58.6182 123.648 58.4102 124.728 57.9942 125.768C57.5782 126.792 56.9942 127.712 56.2422 128.528C55.5062 129.328 54.6262 129.96 53.6022 130.424C52.5942 130.888 51.4902 131.12 50.2902 131.12ZM45.3462 122.48C45.3462 123.216 45.4582 123.928 45.6822 124.616C45.9062 125.304 46.2262 125.92 46.6422 126.464C47.0742 126.992 47.5942 127.416 48.2022 127.736C48.8262 128.04 49.5302 128.192 50.3142 128.192C51.1142 128.192 51.8262 128.032 52.4502 127.712C53.0742 127.376 53.5942 126.936 54.0102 126.392C54.4262 125.832 54.7382 125.216 54.9462 124.544C55.1702 123.856 55.2822 123.168 55.2822 122.48C55.2822 121.744 55.1622 121.04 54.9222 120.368C54.6982 119.68 54.3702 119.072 53.9382 118.544C53.5222 118 53.0022 117.576 52.3782 117.272C51.7702 116.952 51.0822 116.792 50.3142 116.792C49.4982 116.792 48.7782 116.96 48.1542 117.296C47.5462 117.616 47.0342 118.048 46.6182 118.592C46.2022 119.136 45.8822 119.744 45.6582 120.416C45.4502 121.088 45.3462 121.776 45.3462 122.48ZM64.4708 120.056V131H61.1588V113.96H63.7988L72.6068 125.192V113.984H75.9188V131H73.1588L64.4708 120.056ZM92.2075 116.864H86.7595V131H83.4715V116.864H78.0235V113.96H92.2075V116.864ZM97.3611 113.96H100.721L106.985 131H103.577L101.993 126.752H96.0411L94.4811 131H91.0731L97.3611 113.96ZM101.393 124.424L99.0411 117.392L96.5931 124.424H101.393ZM107.166 122.36C107.166 121.32 107.35 120.304 107.718 119.312C108.102 118.304 108.654 117.392 109.374 116.576C110.094 115.744 110.974 115.088 112.014 114.608C113.054 114.112 114.238 113.864 115.566 113.864C117.134 113.864 118.486 114.208 119.622 114.896C120.774 115.584 121.63 116.48 122.19 117.584L119.646 119.336C119.358 118.696 118.982 118.192 118.518 117.824C118.054 117.44 117.558 117.176 117.03 117.032C116.502 116.872 115.982 116.792 115.47 116.792C114.638 116.792 113.91 116.96 113.286 117.296C112.678 117.632 112.166 118.072 111.75 118.616C111.334 119.16 111.022 119.768 110.814 120.44C110.622 121.112 110.526 121.784 110.526 122.456C110.526 123.208 110.646 123.936 110.886 124.64C111.126 125.328 111.462 125.944 111.894 126.488C112.342 127.016 112.87 127.44 113.478 127.76C114.102 128.064 114.782 128.216 115.518 128.216C116.046 128.216 116.582 128.128 117.126 127.952C117.67 127.776 118.174 127.496 118.638 127.112C119.102 126.728 119.462 126.232 119.718 125.624L122.43 127.184C122.094 128.032 121.542 128.752 120.774 129.344C120.022 129.936 119.174 130.384 118.23 130.688C117.286 130.992 116.35 131.144 115.422 131.144C114.206 131.144 113.094 130.896 112.086 130.4C111.078 129.888 110.206 129.216 109.47 128.384C108.75 127.536 108.182 126.592 107.766 125.552C107.366 124.496 107.166 123.432 107.166 122.36ZM137.395 116.864H131.947V131H128.659V116.864H123.211V113.96H137.395V116.864ZM151.797 131.12C150.437 131.12 149.277 130.896 148.317 130.448C147.373 129.984 146.605 129.352 146.013 128.552C145.437 127.752 145.013 126.848 144.741 125.84C144.469 124.816 144.333 123.752 144.333 122.648V113.96H147.645V122.648C147.645 123.352 147.709 124.04 147.837 124.712C147.981 125.368 148.213 125.96 148.533 126.488C148.853 127.016 149.277 127.432 149.805 127.736C150.333 128.04 150.989 128.192 151.773 128.192C152.573 128.192 153.237 128.04 153.765 127.736C154.309 127.416 154.733 126.992 155.037 126.464C155.357 125.936 155.589 125.344 155.733 124.688C155.877 124.016 155.949 123.336 155.949 122.648V113.96H159.237V122.648C159.237 123.816 159.093 124.912 158.805 125.936C158.533 126.96 158.093 127.864 157.485 128.648C156.893 129.416 156.125 130.024 155.181 130.472C154.237 130.904 153.109 131.12 151.797 131.12ZM172.725 118.424C172.613 118.312 172.405 118.16 172.101 117.968C171.813 117.776 171.453 117.592 171.021 117.416C170.605 117.24 170.149 117.088 169.653 116.96C169.157 116.816 168.653 116.744 168.141 116.744C167.245 116.744 166.565 116.912 166.101 117.248C165.653 117.584 165.429 118.056 165.429 118.664C165.429 119.128 165.573 119.496 165.861 119.768C166.149 120.04 166.581 120.272 167.157 120.464C167.733 120.656 168.453 120.864 169.317 121.088C170.437 121.36 171.405 121.696 172.221 122.096C173.053 122.48 173.685 122.992 174.117 123.632C174.565 124.256 174.789 125.088 174.789 126.128C174.789 127.04 174.621 127.824 174.285 128.48C173.949 129.12 173.485 129.64 172.893 130.04C172.301 130.44 171.629 130.736 170.877 130.928C170.125 131.104 169.325 131.192 168.477 131.192C167.629 131.192 166.781 131.104 165.933 130.928C165.085 130.752 164.269 130.504 163.485 130.184C162.701 129.848 161.981 129.448 161.325 128.984L162.789 126.128C162.933 126.272 163.189 126.464 163.557 126.704C163.925 126.928 164.373 127.16 164.901 127.4C165.429 127.624 166.005 127.816 166.629 127.976C167.253 128.136 167.885 128.216 168.525 128.216C169.421 128.216 170.101 128.064 170.565 127.76C171.029 127.456 171.261 127.024 171.261 126.464C171.261 125.952 171.077 125.552 170.709 125.264C170.341 124.976 169.829 124.728 169.173 124.52C168.517 124.296 167.741 124.056 166.845 123.8C165.773 123.496 164.877 123.16 164.157 122.792C163.437 122.408 162.901 121.928 162.549 121.352C162.197 120.776 162.021 120.056 162.021 119.192C162.021 118.024 162.293 117.048 162.837 116.264C163.397 115.464 164.149 114.864 165.093 114.464C166.037 114.048 167.085 113.84 168.237 113.84C169.037 113.84 169.789 113.928 170.493 114.104C171.213 114.28 171.885 114.512 172.509 114.8C173.133 115.088 173.693 115.4 174.189 115.736L172.725 118.424Z" fill="#143251"/>
<path d="M129.7 68.36L117.85 63.28C117.339 63.0569 116.769 63.0075 116.227 63.1393C115.685 63.2712 115.201 63.577 114.85 64.01L109.64 70.36C101.414 66.4878 94.7898 59.8774 90.9 51.66L97.31 46.41C97.7457 46.0606 98.0536 45.5769 98.1857 45.0342C98.3177 44.4916 98.2665 43.9205 98.04 43.41L92.96 31.56C92.7213 31.015 92.3003 30.5701 91.7693 30.3019C91.2382 30.0336 90.6303 29.9587 90.05 30.09L79.05 32.63C78.4846 32.7549 77.9785 33.0685 77.615 33.5192C77.2515 33.9699 77.0523 34.5309 77.05 35.11C77.05 41.5561 78.3198 47.9391 80.787 53.8944C83.2541 59.8497 86.8702 65.2607 91.4287 69.8183C95.9873 74.3759 101.399 77.9909 107.355 80.4569C113.311 82.9228 119.694 84.1913 126.14 84.19C126.718 84.1873 127.277 83.9876 127.726 83.624C128.175 83.2604 128.487 82.7546 128.61 82.19L131.15 71.19C131.261 70.624 131.178 70.0371 130.915 69.5238C130.652 69.0105 130.224 68.6006 129.7 68.36Z" fill="#143251"/>
<path d="M104.16 203.46C159.239 203.46 203.89 158.809 203.89 103.73C203.89 48.6506 159.239 4 104.16 4C49.0806 4 4.42999 48.6506 4.42999 103.73C4.42999 158.809 49.0806 203.46 104.16 203.46Z" stroke="#143251" stroke-width="6.87" stroke-miterlimit="10"/>
</svg>
