<svg width="50" height="76" viewBox="0 0 50 76" fill="none" xmlns="http://www.w3.org/2000/svg">
<path d="M48.54 35.23C47.54 34.33 43.97 33.6 40.3 33.06L40.4 32.58V16.43C40.4295 14.7784 39.8028 13.1824 38.6575 11.9921C37.5121 10.8017 35.9415 10.1141 34.29 10.08C33.2037 10.0843 32.1402 10.3926 31.22 10.97V7.08997C31.2414 5.42778 30.6029 3.82494 29.4444 2.63275C28.286 1.44056 26.7021 0.756313 25.04 0.72998C23.51 0.752382 22.0419 1.33799 20.9165 2.37482C19.7911 3.41164 19.0874 4.82691 18.94 6.34998C17.9922 5.74593 16.8939 5.42023 15.77 5.40997C14.1079 5.43631 12.524 6.12056 11.3656 7.31274C10.2071 8.50493 9.56861 10.1078 9.59 11.77V21.24C8.60302 20.5853 7.44436 20.2374 6.25999 20.24C4.6639 20.2668 3.13858 20.9033 1.99687 22.019C0.855165 23.1347 0.183622 24.6449 0.119995 26.24V26.4V49.2599L0.319992 49.97V53.03C0.319992 65.96 10.5 75.03 25.09 75.03C39.68 75.03 49.85 66.03 49.85 53.03V37.79C49.7515 36.8021 49.2836 35.8878 48.54 35.23ZM31.22 16.43C31.1902 15.5819 31.4976 14.7564 32.0748 14.1343C32.6519 13.5121 33.452 13.1438 34.3 13.11C35.1462 13.1464 35.9437 13.5158 36.5188 14.1377C37.0938 14.7596 37.3998 15.5835 37.37 16.43V32.58V32.67C36.04 32.51 34.78 32.37 33.69 32.27C32.8633 32.2128 32.033 32.2329 31.21 32.33V16.43H31.22ZM3.12 26.57C3.09841 25.713 3.4163 24.8822 4.00441 24.2585C4.59252 23.6348 5.40323 23.2687 6.25999 23.24C7.11852 23.2661 7.9318 23.6311 8.52205 24.2551C9.1123 24.879 9.43155 25.7114 9.41 26.57V36.39C9.43151 37.2476 9.11195 38.0788 8.52142 38.7012C7.9309 39.3236 7.11763 39.6864 6.25999 39.71C5.59051 39.6944 4.94366 39.4646 4.41447 39.0542C3.88529 38.6438 3.50167 38.0745 3.31999 37.43V32.79L3.12 32.08V26.57ZM46.78 53.03C46.78 64.18 37.85 71.97 25.05 71.97C12.25 71.97 3.31 64.18 3.31 53.03V41.94C4.20323 42.459 5.21692 42.7349 6.25 42.74C7.84684 42.7156 9.37354 42.0798 10.5158 40.9636C11.658 39.8475 12.3288 38.3358 12.39 36.74V36.58V35.87L12.57 35.18V11.79C12.5484 10.9303 12.8673 10.097 13.4573 9.47144C14.0473 8.84586 14.8606 8.4787 15.72 8.44995C16.5351 8.47752 17.3092 8.81433 17.885 9.39197C18.4607 9.9696 18.795 10.7448 18.82 11.56V36.56C18.82 36.9631 18.9801 37.3497 19.2652 37.6348C19.5503 37.9198 19.9369 38.08 20.34 38.08C20.7414 38.0773 21.1254 37.9161 21.4083 37.6313C21.6912 37.3465 21.85 36.9614 21.85 36.56V33.47V33.27V11.79V11.36V7.10999C21.8284 6.25036 22.1473 5.41702 22.7373 4.79144C23.3273 4.16587 24.1406 3.7987 25 3.76996C25.8585 3.79869 26.6708 4.16618 27.2592 4.79205C27.8476 5.41793 28.1643 6.2513 28.14 7.10999V33.43C27.1571 34.0433 26.4047 34.9645 26 36.05C25.7367 36.8379 25.6314 37.6699 25.69 38.4986C25.7486 39.3272 25.97 40.1363 26.3415 40.8793C26.713 41.6223 27.2273 42.2847 27.8551 42.8288C28.4829 43.3729 29.2117 43.7879 30 44.05L39.67 46.73C40.0571 46.8317 40.4686 46.7776 40.8163 46.5795C41.164 46.3813 41.4202 46.0548 41.53 45.67C41.6374 45.2814 41.5861 44.8661 41.3873 44.5154C41.1885 44.1648 40.8585 43.9074 40.47 43.8L30.92 41.17C30.1049 40.8938 29.4315 40.3075 29.0458 39.5381C28.6602 38.7687 28.5934 37.8783 28.86 37.06C29.07 36.49 29.61 35.0599 33.42 35.2599C38.93 35.8099 45.52 36.83 46.5 37.48L46.75 37.73V53.02L46.78 53.03Z" fill="white"/>
</svg>
