<svg width="76" height="77" viewBox="0 0 76 77" fill="none" xmlns="http://www.w3.org/2000/svg">
<path d="M67.58 58.37C83.7 37.86 70.47 19.21 70.47 19.21C78.1 33.62 63.47 47.85 63.47 47.85C81.16 19.04 53.31 2.23999 53.31 2.23999C69.59 14.45 51.62 34.24 51.62 34.24C66.03 60.85 40.09 72.89 40.09 72.89C40.09 72.89 40.03 70.05 39.72 58.5C40.45 59.25 45.52 64.58 45.52 64.58L41.45 56.58L51.97 55.06L41.45 53.53L44.85 44.2L39.57 51.91C39.2 37.18 38.26 0.659985 38.25 0.359985C38.25 0.519985 37.3 37.15 36.92 51.91L31.64 44.2L35.04 53.53L24.52 55.06L35.04 56.58L30.97 64.58L36.77 58.5C36.46 70.05 36.4 72.89 36.4 72.89C36.4 72.89 10.46 60.89 24.87 34.24C24.87 34.24 6.86998 14.4 23.18 2.23999C23.18 2.23999 -4.63002 19.02 13.01 47.85C13.01 47.85 -1.57002 33.61 6.00998 19.21C6.00998 19.21 -7.22002 37.86 8.89998 58.37C8.89998 58.37 4.48998 55.66 0.599976 45.31C0.599976 45.31 3.43998 76.11 37.89 76.51H38.58C73.02 76.11 75.88 45.31 75.88 45.31C71.88 55.65 67.49 58.37 67.49 58.37H67.58Z" fill="white"/>
</svg>
