<svg width="48" height="77" viewBox="0 0 48 77" fill="none" xmlns="http://www.w3.org/2000/svg">
<path d="M44.38 23.93H27.14L33.51 4.53C33.6468 3.99878 33.6607 3.44338 33.5507 2.90598C33.4407 2.36857 33.2096 1.86331 32.8751 1.42856C32.5406 0.993804 32.1114 0.640977 31.6202 0.396912C31.1289 0.152848 30.5885 0.0239691 30.04 0.0200202H8.52997C7.6606 0.0194793 6.82061 0.334412 6.16589 0.906373C5.51117 1.47833 5.08621 2.26845 4.96997 3.13001L0.190002 38.98C0.123198 39.4873 0.165268 40.003 0.313476 40.4928C0.461684 40.9825 0.712623 41.435 1.0495 41.8202C1.38637 42.2053 1.80149 42.5142 2.26715 42.7263C2.73281 42.9383 3.23832 43.0487 3.75 43.05H21.48L14.59 72.11C14.3892 72.948 14.4974 73.8304 14.8948 74.5951C15.2921 75.3597 15.952 75.9554 16.7532 76.2727C17.5544 76.5901 18.4432 76.6077 19.2563 76.3225C20.0695 76.0373 20.7525 75.4683 21.18 74.72L47.47 29.3C47.787 28.7571 47.955 28.14 47.957 27.5113C47.959 26.8825 47.7949 26.2644 47.4813 25.7195C47.1677 25.1745 46.7158 24.7221 46.1712 24.4078C45.6266 24.0936 45.0087 23.9288 44.38 23.93Z" fill="white"/>
</svg>
