<svg width="208" height="208" viewBox="0 0 208 208" fill="none" xmlns="http://www.w3.org/2000/svg">
<path d="M75.297 131V119.816L70.929 128.144H69.081L64.713 119.816V131H61.401V113.96H64.953L69.993 123.656L75.081 113.96H78.609V131H75.297ZM86.7986 113.96H90.1586L96.4226 131H93.0146L91.4306 126.752H85.4786L83.9186 131H80.5106L86.7986 113.96ZM90.8306 124.424L88.4786 117.392L86.0306 124.424H90.8306ZM98.2916 131V113.984H101.604V122.072L108.756 113.96H112.404L105.876 121.52L112.812 131H109.068L103.764 123.656L101.604 125.912V131H98.2916ZM126.178 128.096V131H114.346V113.96H125.962V116.864H117.658V120.968H124.834V123.656H117.658V128.096H126.178ZM138.408 113.96H141.768L148.032 131H144.624L143.04 126.752H137.088L135.528 131H132.12L138.408 113.96ZM142.44 124.424L140.088 117.392L137.64 124.424H142.44ZM49.1549 159V141.96H56.3789C57.1629 141.96 57.8829 142.12 58.5389 142.44C59.1949 142.76 59.7629 143.192 60.2429 143.736C60.7389 144.28 61.1229 144.888 61.3949 145.56C61.6669 146.232 61.8029 146.92 61.8029 147.624C61.8029 148.584 61.5789 149.496 61.1309 150.36C60.6829 151.224 60.0669 151.928 59.2829 152.472C58.4989 153.016 57.5709 153.288 56.4989 153.288H52.4669V159H49.1549ZM52.4669 150.384H56.3069C56.7069 150.384 57.0669 150.272 57.3869 150.048C57.7069 149.824 57.9629 149.504 58.1549 149.088C58.3469 148.656 58.4429 148.168 58.4429 147.624C58.4429 147.032 58.3309 146.528 58.1069 146.112C57.8989 145.696 57.6189 145.384 57.2669 145.176C56.9309 144.968 56.5629 144.864 56.1629 144.864H52.4669V150.384ZM67.5213 141.96H70.8813L77.1453 159H73.7373L72.1533 154.752H66.2013L64.6413 159H61.2333L67.5213 141.96ZM71.5533 152.424L69.2013 145.392L66.7533 152.424H71.5533ZM79.1296 141.96L83.3296 149.976L87.6016 141.96H91.1776L84.9856 153.048V159H81.6976V153L75.5296 141.96H79.1296ZM106.949 159V147.816L102.581 156.144H100.733L96.3653 147.816V159H93.0533V141.96H96.6053L101.645 151.656L106.733 141.96H110.261V159H106.949ZM125.651 156.096V159H113.819V141.96H125.435V144.864H117.131V148.968H124.307V151.656H117.131V156.096H125.651ZM131.545 148.056V159H128.233V141.96H130.873L139.681 153.192V141.984H142.993V159H140.233L131.545 148.056ZM159.282 144.864H153.834V159H150.546V144.864H145.098V141.96H159.282V144.864Z" fill="#143251"/>
<path d="M71.78 75.3499C71.7827 76.768 72.3472 78.1273 73.35 79.13C74.3527 80.1328 75.712 80.6973 77.1301 80.6999H130.63C132.049 80.6999 133.41 80.1363 134.413 79.1329C135.416 78.1296 135.98 76.7688 135.98 75.3499V55.7299H71.78V75.3499ZM93.1801 67.7899C93.1827 67.4353 93.3247 67.096 93.5754 66.8453C93.8262 66.5946 94.1655 66.4525 94.5201 66.4499H109.68C110.035 66.4525 110.374 66.5946 110.625 66.8453C110.875 67.096 111.017 67.4353 111.02 67.7899V72.2499C111.017 72.6045 110.875 72.9438 110.625 73.1946C110.374 73.4453 110.035 73.5873 109.68 73.5899H94.5201C94.1647 73.5899 93.8238 73.4487 93.5725 73.1974C93.3212 72.9462 93.1801 72.6053 93.1801 72.2499V67.7899ZM78.91 67.7899C78.9127 67.4353 79.0547 67.096 79.3054 66.8453C79.5562 66.5946 79.8955 66.4525 80.2501 66.4499H88.2501C88.4277 66.4473 88.6041 66.48 88.769 66.5461C88.9339 66.6123 89.084 66.7106 89.2105 66.8353C89.3371 66.96 89.4376 67.1086 89.5062 67.2725C89.5748 67.4364 89.6101 67.6123 89.61 67.7899V72.2499C89.605 72.595 89.4671 72.9249 89.2249 73.1708C88.9827 73.4167 88.655 73.5597 88.3101 73.5699H80.3101C79.9555 73.5673 79.6162 73.4253 79.3654 73.1746C79.1147 72.9238 78.9726 72.5845 78.97 72.2299L78.91 67.7899ZM135.98 36.1399V41.4899H71.78V36.1399C71.78 34.721 72.3437 33.3602 73.347 32.3569C74.3504 31.3536 75.7112 30.7899 77.1301 30.7899H130.63C131.331 30.7886 132.026 30.9254 132.674 31.1926C133.323 31.4597 133.912 31.852 134.409 32.3469C134.906 32.8418 135.3 33.4298 135.57 34.0772C135.839 34.7245 135.979 35.4187 135.98 36.1199V36.1399Z" fill="#143251"/>
<path d="M103.88 203.89C158.959 203.89 203.61 159.239 203.61 104.16C203.61 49.0806 158.959 4.42993 103.88 4.42993C48.8006 4.42993 4.15002 49.0806 4.15002 104.16C4.15002 159.239 48.8006 203.89 103.88 203.89Z" stroke="#143251" stroke-width="6.87" stroke-miterlimit="10"/>
</svg>
