<svg width="128" height="53" viewBox="0 0 128 53" fill="none" xmlns="http://www.w3.org/2000/svg">
<path d="M80.95 13.4C79.45 8.91996 72.36 0.619995 70.25 0.619995C68.14 0.619995 67.47 14.22 62.78 15.39C58.31 16.52 36.31 21.79 36.31 21.79C36.31 21.79 32.69 18.79 31.58 19.05C30.65 19.23 30.2 23.36 27.36 23.57C25.1647 23.6808 22.9653 23.6808 20.77 23.57C14.18 10.38 0.340027 9.66998 0.340027 9.66998C7.45003 20.24 14.34 27.21 4.58002 41.89C11.3 41.89 19.89 31.69 20.51 29.45C22.89 28.82 25.63 28.84 27.1 30.57C28.22 31.88 28.25 32.48 29.1 32.73C29.95 32.98 30.93 30.82 32.42 30.82C33.91 30.82 41.15 33.11 43 33.68C44.85 34.25 46.73 40.77 49.1 41.02C51.47 41.27 56.81 36.66 58.1 36.66C59.39 36.66 68.55 38.03 78.76 37.66C80.5 39.52 82.76 43.29 78.19 50.35C77.32 51.72 77.57 53.96 80.43 51.72C83.29 49.48 88.57 46.34 93.92 36.64C99.4 36.14 127.86 29.2 127.86 24.1C127.86 19 96.5 12.9 80.95 13.4Z" fill="white"/>
</svg>
