<svg width="76" height="75" viewBox="0 0 76 75" fill="none" xmlns="http://www.w3.org/2000/svg">
<path d="M51.11 24.21C47.6204 20.7128 42.8904 18.736 37.95 18.71C35.4986 18.6995 33.0699 19.1808 30.8077 20.1255C28.5456 21.0702 26.4959 22.4591 24.78 24.21C21.2813 27.7027 19.3045 32.4364 19.28 37.38C19.306 42.3204 21.2828 47.0504 24.78 50.54C28.2727 54.0387 33.0064 56.0156 37.95 56.04C40.3999 56.0497 42.8268 55.568 45.0873 54.6233C47.3477 53.6786 49.3957 52.2901 51.11 50.54C54.6072 47.0504 56.5841 42.3204 56.61 37.38C56.6205 34.9285 56.1392 32.4998 55.1945 30.2377C54.2498 27.9755 52.8609 25.9259 51.11 24.21ZM47.57 47C46.304 48.2558 44.8026 49.2495 43.1517 49.9239C41.5009 50.5983 39.7332 50.9402 37.95 50.93C36.1652 50.941 34.3958 50.5994 32.7432 49.925C31.0907 49.2506 29.5876 48.2566 28.32 47C27.0642 45.734 26.0705 44.2325 25.3961 42.5817C24.7218 40.9309 24.3799 39.1632 24.39 37.38C24.3759 33.7905 25.7856 30.3418 28.31 27.79C29.5776 26.5334 31.0807 25.5394 32.7332 24.865C34.3858 24.1906 36.1552 23.8491 37.94 23.86C39.7233 23.8498 41.4909 24.1917 43.1418 24.8661C44.7926 25.5405 46.294 26.5341 47.56 27.79C48.8166 29.0575 49.8107 30.5607 50.4851 32.2132C51.1595 33.8658 51.501 35.6352 51.49 37.42C51.5026 41.0063 50.093 44.4512 47.57 47Z" fill="white"/>
<path d="M72.53 34.79H64.96C64.286 34.8029 63.6434 35.0771 63.1676 35.5547C62.6919 36.0323 62.4203 36.676 62.41 37.35C62.4228 38.0223 62.6956 38.6635 63.1711 39.139C63.6465 39.6144 64.2877 39.8872 64.96 39.9H72.53C73.2023 39.8872 73.8435 39.6144 74.319 39.139C74.7944 38.6635 75.0672 38.0223 75.08 37.35C75.0698 36.676 74.7981 36.0323 74.3224 35.5547C73.8466 35.0771 73.204 34.8029 72.53 34.79Z" fill="white"/>
<path d="M37.95 61.84C37.276 61.8502 36.6323 62.1219 36.1547 62.5976C35.6771 63.0733 35.4029 63.716 35.39 64.39V71.96C35.4029 72.634 35.6771 73.2766 36.1547 73.7523C36.6323 74.2281 37.276 74.4997 37.95 74.51C38.6223 74.4972 39.2635 74.2244 39.739 73.7489C40.2144 73.2735 40.4872 72.6323 40.5 71.96V64.39C40.4872 63.7177 40.2144 63.0765 39.739 62.601C39.2635 62.1256 38.6223 61.8528 37.95 61.84Z" fill="white"/>
<path d="M64.18 60.0701L58.77 54.6701C58.54 54.4351 58.2654 54.2485 57.9623 54.1211C57.6593 53.9936 57.3338 53.928 57.005 53.928C56.6762 53.928 56.3508 53.9936 56.0477 54.1211C55.7446 54.2485 55.47 54.4351 55.24 54.6701C55.0051 54.9001 54.8184 55.1747 54.691 55.4778C54.5636 55.7808 54.4979 56.1063 54.4979 56.4351C54.4979 56.7638 54.5636 57.0893 54.691 57.3924C54.8184 57.6955 55.0051 57.9701 55.24 58.2001L60.64 63.6101C60.8722 63.8429 61.1481 64.0276 61.4518 64.1536C61.7556 64.2797 62.0812 64.3445 62.41 64.3445C62.7389 64.3445 63.0645 64.2797 63.3682 64.1536C63.6719 64.0276 63.9478 63.8429 64.18 63.6101C64.4128 63.3778 64.5975 63.102 64.7236 62.7982C64.8496 62.4945 64.9145 62.1689 64.9145 61.8401C64.9145 61.5112 64.8496 61.1856 64.7236 60.8819C64.5975 60.5782 64.4128 60.3023 64.18 60.0701Z" fill="white"/>
<path d="M37.95 0.23999C37.276 0.250238 36.6323 0.521881 36.1547 0.99762C35.6771 1.47336 35.4029 2.11599 35.39 2.78998V10.36C35.4029 11.034 35.6771 11.6766 36.1547 12.1523C36.6323 12.6281 37.276 12.8997 37.95 12.91C38.6223 12.8972 39.2635 12.6244 39.739 12.1489C40.2144 11.6735 40.4872 11.0323 40.5 10.36V2.78998C40.4872 2.11768 40.2144 1.47651 39.739 1.00104C39.2635 0.525568 38.6223 0.252799 37.95 0.23999Z" fill="white"/>
<path d="M64.31 11.14C64.0778 10.9072 63.8019 10.7224 63.4982 10.5964C63.1944 10.4704 62.8688 10.4055 62.54 10.4055C62.2111 10.4055 61.8855 10.4704 61.5818 10.5964C61.2781 10.7224 61.0022 10.9072 60.77 11.14L55.37 16.55C55.1347 16.7808 54.9479 17.0563 54.8203 17.3602C54.6928 17.6641 54.6271 17.9904 54.6271 18.32C54.6271 18.6496 54.6928 18.9759 54.8203 19.2798C54.9479 19.5837 55.1347 19.8591 55.37 20.09C55.6014 20.3225 55.8764 20.507 56.1793 20.6329C56.4822 20.7588 56.807 20.8236 57.135 20.8236C57.463 20.8236 57.7878 20.7588 58.0907 20.6329C58.3936 20.507 58.6686 20.3225 58.9 20.09L64.31 14.68C64.5428 14.4478 64.7275 14.1719 64.8535 13.8681C64.9796 13.5644 65.0444 13.2388 65.0444 12.91C65.0444 12.5811 64.9796 12.2555 64.8535 11.9518C64.7275 11.6481 64.5428 11.3722 64.31 11.14Z" fill="white"/>
<path d="M10.93 34.79H3.36002C2.68603 34.8029 2.04338 35.0771 1.56765 35.5547C1.09191 36.0323 0.820264 36.676 0.810016 37.35C0.807352 37.6856 0.871485 38.0184 0.998691 38.329C1.1259 38.6396 1.31363 38.9218 1.55095 39.1591C1.78827 39.3964 2.07045 39.5842 2.38103 39.7114C2.69161 39.8386 3.02441 39.9027 3.36002 39.9H10.93C11.6023 39.8872 12.2435 39.6144 12.719 39.139C13.1944 38.6635 13.4672 38.0223 13.48 37.35C13.4698 36.676 13.1981 36.0323 12.7224 35.5547C12.2466 35.0771 11.604 34.8029 10.93 34.79Z" fill="white"/>
<path d="M20.56 54.67C20.3291 54.4348 20.0537 54.2479 19.7498 54.1204C19.4459 53.9928 19.1196 53.9271 18.79 53.9271C18.4604 53.9271 18.1341 53.9928 17.8302 54.1204C17.5263 54.2479 17.2509 54.4348 17.02 54.67L11.62 60.07C11.3847 60.3009 11.1979 60.5763 11.0703 60.8802C10.9428 61.1842 10.8771 61.5104 10.8771 61.84C10.8771 62.1696 10.9428 62.4959 11.0703 62.7998C11.1979 63.1037 11.3847 63.3792 11.62 63.61C11.8514 63.8426 12.1264 64.0271 12.4293 64.153C12.7322 64.2789 13.057 64.3437 13.385 64.3437C13.713 64.3437 14.0378 64.2789 14.3407 64.153C14.6436 64.0271 14.9186 63.8426 15.15 63.61L20.56 58.2C20.7925 57.9687 20.977 57.6936 21.1029 57.3907C21.2288 57.0879 21.2936 56.763 21.2936 56.435C21.2936 56.107 21.2288 55.7822 21.1029 55.4793C20.977 55.1764 20.7925 54.9014 20.56 54.67Z" fill="white"/>
<path d="M20.56 16.55L15.15 11.14C14.9186 10.9075 14.6436 10.723 14.3407 10.5971C14.0378 10.4712 13.713 10.4064 13.385 10.4064C13.057 10.4064 12.7322 10.4712 12.4293 10.5971C12.1264 10.723 11.8514 10.9075 11.62 11.14C11.3847 11.3708 11.1979 11.6463 11.0703 11.9502C10.9428 12.2541 10.8771 12.5804 10.8771 12.91C10.8771 13.2396 10.9428 13.5659 11.0703 13.8698C11.1979 14.1737 11.3847 14.4491 11.62 14.68L17.02 20.09C17.2522 20.3228 17.5281 20.5075 17.8318 20.6335C18.1355 20.7596 18.4611 20.8244 18.79 20.8244C19.1188 20.8244 19.4444 20.7596 19.7482 20.6335C20.0519 20.5075 20.3278 20.3228 20.56 20.09C20.7928 19.8577 20.9775 19.5819 21.1035 19.2781C21.2296 18.9744 21.2944 18.6488 21.2944 18.32C21.2944 17.9911 21.2296 17.6655 21.1035 17.3618C20.9775 17.0581 20.7928 16.7822 20.56 16.55Z" fill="white"/>
</svg>
