<svg width="75" height="50" viewBox="0 0 75 50" fill="none" xmlns="http://www.w3.org/2000/svg">
<path d="M67.6793 8.69984C57.8693 -7.42016 43.0793 3.79982 43.0793 3.79982C41.9148 4.5913 40.5554 5.0479 39.1493 5.11983H35.1493C33.7423 5.05253 32.3817 4.59552 31.2193 3.79982C31.2193 3.79982 16.4693 -7.41016 6.64929 8.69984C-3.17071 24.8098 0.789293 42.3798 0.789293 42.3798C1.48929 46.6798 3.78929 49.5498 8.07929 49.1898C12.3693 48.8298 21.7093 37.6098 21.7093 37.6098C22.6424 36.6106 23.9244 36.009 25.2893 35.9298H49.0393C50.4052 36.0049 51.6886 36.6072 52.6193 37.6098C52.6193 37.6098 61.9493 48.8298 66.2593 49.1798C70.5693 49.5298 72.8493 46.6698 73.5393 42.3798C73.5393 42.3998 77.4993 24.8398 67.6793 8.69984ZM28.2393 21.8298H23.1493V26.7398C22.3362 27.2819 21.3763 27.5612 20.3993 27.5399C19.9562 27.5596 19.5136 27.4901 19.0979 27.3355C18.6822 27.1809 18.3018 26.9443 17.9793 26.6398V21.8298H13.1493C12.6619 21.1874 12.3922 20.4062 12.3793 19.5999C12.3081 18.5784 12.5413 17.5588 13.0493 16.6698H18.1493V11.5798C18.9496 11.2068 19.8269 11.0285 20.7093 11.0598C21.6109 11.0898 22.4978 11.2971 23.3193 11.6698V16.6698H28.1493C28.6615 17.3667 28.9759 18.189 29.0593 19.0498C29.0189 20.033 28.7373 20.9912 28.2393 21.8399V21.8298ZM51.5993 27.4298C50.8082 27.4298 50.0348 27.1953 49.377 26.7558C48.7192 26.3162 48.2065 25.6915 47.9038 24.9606C47.601 24.2297 47.5218 23.4254 47.6761 22.6495C47.8305 21.8736 48.2114 21.1608 48.7709 20.6014C49.3303 20.042 50.043 19.6611 50.8189 19.5067C51.5948 19.3524 52.3991 19.4316 53.13 19.7343C53.8609 20.0371 54.4856 20.5497 54.9252 21.2075C55.3647 21.8653 55.5993 22.6387 55.5993 23.4298C55.6006 23.956 55.4981 24.4772 55.2977 24.9636C55.0973 25.4501 54.8028 25.8922 54.4313 26.2647C54.0597 26.6372 53.6183 26.9328 53.1323 27.1344C52.6464 27.3361 52.1254 27.4398 51.5993 27.4398V27.4298ZM51.5993 16.3399C50.8082 16.3399 50.0348 16.1052 49.377 15.6657C48.7192 15.2262 48.2065 14.6015 47.9038 13.8706C47.601 13.1397 47.5218 12.3354 47.6761 11.5595C47.8305 10.7835 48.2114 10.0708 48.7709 9.51143C49.3303 8.95202 50.043 8.57104 50.8189 8.4167C51.5948 8.26236 52.3991 8.34155 53.13 8.6443C53.8609 8.94705 54.4856 9.45977 54.9252 10.1176C55.3647 10.7754 55.5993 11.5487 55.5993 12.3399C55.6006 12.866 55.4981 13.3872 55.2977 13.8737C55.0973 14.3601 54.8028 14.8023 54.4313 15.1748C54.0597 15.5473 53.6183 15.8427 53.1323 16.0444C52.6464 16.246 52.1254 16.3499 51.5993 16.3499V16.3399ZM61.5993 22.3399C60.8082 22.3399 60.0348 22.1052 59.377 21.6657C58.7192 21.2262 58.2065 20.6015 57.9038 19.8706C57.601 19.1397 57.5218 18.3354 57.6761 17.5595C57.8305 16.7835 58.2114 16.0708 58.7709 15.5114C59.3303 14.952 60.043 14.571 60.8189 14.4167C61.5948 14.2624 62.3991 14.3415 63.13 14.6443C63.8609 14.9471 64.4856 15.4598 64.9252 16.1176C65.3647 16.7754 65.5993 17.5487 65.5993 18.3399C65.5889 19.3869 65.1683 20.3881 64.4279 21.1285C63.6875 21.8689 62.6863 22.2894 61.6393 22.2998L61.5993 22.3399Z" fill="white"/>
</svg>
