<svg width="207" height="208" viewBox="0 0 207 208" fill="none" xmlns="http://www.w3.org/2000/svg">
<path d="M33.278 113.96L37.886 127.064L42.446 113.96H45.926L39.47 131H36.278L29.798 113.96H33.278ZM47.7448 131V113.96H51.0568V131H47.7448ZM66.4439 128.096V131H54.6119V113.96H66.2279V116.864H57.9239V120.968H65.0999V123.656H57.9239V128.096H66.4439ZM74.858 114.008H77.93L79.874 119.648L81.842 114.008H84.89L81.962 121.76L84.122 127.184L88.946 113.96H92.546L85.73 131H82.874L79.874 123.848L76.898 131H74.042L67.25 113.96H70.802L75.65 127.184L77.762 121.76L74.858 114.008ZM99.2135 131V113.96H105.406C107.262 113.96 108.814 114.344 110.062 115.112C111.31 115.864 112.246 116.888 112.87 118.184C113.494 119.464 113.806 120.888 113.806 122.456C113.806 124.184 113.462 125.688 112.774 126.968C112.086 128.248 111.11 129.24 109.846 129.944C108.598 130.648 107.118 131 105.406 131H99.2135ZM110.47 122.456C110.47 121.352 110.27 120.384 109.87 119.552C109.47 118.704 108.894 118.048 108.142 117.584C107.39 117.104 106.478 116.864 105.406 116.864H102.526V128.096H105.406C106.494 128.096 107.414 127.856 108.166 127.376C108.918 126.88 109.486 126.208 109.87 125.36C110.27 124.496 110.47 123.528 110.47 122.456ZM120.369 113.96H123.729L129.993 131H126.585L125.001 126.752H119.049L117.489 131H114.081L120.369 113.96ZM124.401 124.424L122.049 117.392L119.601 124.424H124.401ZM143.012 116.864H137.564V131H134.276V116.864H128.828V113.96H143.012V116.864ZM156.96 128.096V131H145.128V113.96H156.744V116.864H148.44V120.968H155.616V123.656H148.44V128.096H156.96ZM169.694 118.424C169.582 118.312 169.374 118.16 169.07 117.968C168.782 117.776 168.422 117.592 167.99 117.416C167.574 117.24 167.118 117.088 166.622 116.96C166.126 116.816 165.622 116.744 165.11 116.744C164.214 116.744 163.534 116.912 163.07 117.248C162.622 117.584 162.398 118.056 162.398 118.664C162.398 119.128 162.542 119.496 162.83 119.768C163.118 120.04 163.55 120.272 164.126 120.464C164.702 120.656 165.422 120.864 166.286 121.088C167.406 121.36 168.374 121.696 169.19 122.096C170.022 122.48 170.654 122.992 171.086 123.632C171.534 124.256 171.758 125.088 171.758 126.128C171.758 127.04 171.59 127.824 171.254 128.48C170.918 129.12 170.454 129.64 169.862 130.04C169.27 130.44 168.598 130.736 167.846 130.928C167.094 131.104 166.294 131.192 165.446 131.192C164.598 131.192 163.75 131.104 162.902 130.928C162.054 130.752 161.238 130.504 160.454 130.184C159.67 129.848 158.95 129.448 158.294 128.984L159.758 126.128C159.902 126.272 160.158 126.464 160.526 126.704C160.894 126.928 161.342 127.16 161.87 127.4C162.398 127.624 162.974 127.816 163.598 127.976C164.222 128.136 164.854 128.216 165.494 128.216C166.39 128.216 167.07 128.064 167.534 127.76C167.998 127.456 168.23 127.024 168.23 126.464C168.23 125.952 168.046 125.552 167.678 125.264C167.31 124.976 166.798 124.728 166.142 124.52C165.486 124.296 164.71 124.056 163.814 123.8C162.742 123.496 161.846 123.16 161.126 122.792C160.406 122.408 159.87 121.928 159.518 121.352C159.166 120.776 158.99 120.056 158.99 119.192C158.99 118.024 159.262 117.048 159.806 116.264C160.366 115.464 161.118 114.864 162.062 114.464C163.006 114.048 164.054 113.84 165.206 113.84C166.006 113.84 166.758 113.928 167.462 114.104C168.182 114.28 168.854 114.512 169.478 114.8C170.102 115.088 170.662 115.4 171.158 115.736L169.694 118.424ZM68.196 159L60.18 150.504C59.508 149.784 58.964 149.168 58.548 148.656C58.148 148.128 57.86 147.648 57.684 147.216C57.508 146.784 57.42 146.32 57.42 145.824C57.42 145.008 57.62 144.296 58.02 143.688C58.436 143.064 58.996 142.584 59.7 142.248C60.42 141.912 61.22 141.744 62.1 141.744C62.9 141.744 63.636 141.888 64.308 142.176C64.996 142.448 65.556 142.864 65.988 143.424C66.42 143.984 66.636 144.68 66.636 145.512C66.636 146.264 66.444 146.944 66.06 147.552C65.692 148.16 65.196 148.72 64.572 149.232C63.948 149.744 63.244 150.24 62.46 150.72C61.884 151.088 61.356 151.448 60.876 151.8C60.412 152.152 60.044 152.528 59.772 152.928C59.516 153.312 59.388 153.736 59.388 154.2C59.388 154.648 59.516 155.064 59.772 155.448C60.028 155.832 60.38 156.144 60.828 156.384C61.292 156.608 61.804 156.72 62.364 156.72C63.052 156.72 63.716 156.552 64.356 156.216C65.012 155.88 65.596 155.408 66.108 154.8C66.62 154.176 67.02 153.432 67.308 152.568C67.612 151.704 67.764 150.736 67.764 149.664H70.38C70.38 151.184 70.148 152.536 69.684 153.72C69.22 154.888 68.596 155.888 67.812 156.72C67.028 157.536 66.14 158.16 65.148 158.592C64.156 159.024 63.124 159.24 62.052 159.24C60.884 159.24 59.868 159.008 59.004 158.544C58.14 158.064 57.468 157.44 56.988 156.672C56.524 155.904 56.292 155.072 56.292 154.176C56.292 153.28 56.5 152.496 56.916 151.824C57.332 151.152 57.86 150.56 58.5 150.048C59.14 149.52 59.78 149.056 60.42 148.656C61.124 148.208 61.716 147.832 62.196 147.528C62.676 147.208 63.044 146.896 63.3 146.592C63.556 146.272 63.684 145.928 63.684 145.56C63.684 145.128 63.532 144.784 63.228 144.528C62.94 144.256 62.564 144.12 62.1 144.12C61.748 144.12 61.436 144.192 61.164 144.336C60.908 144.48 60.708 144.672 60.564 144.912C60.42 145.152 60.348 145.424 60.348 145.728C60.348 145.952 60.412 146.176 60.54 146.4C60.684 146.624 60.924 146.92 61.26 147.288C61.612 147.64 62.092 148.144 62.7 148.8L72.42 159H68.196ZM79.9596 159V141.96H87.4956C88.2796 141.96 88.9996 142.12 89.6556 142.44C90.3276 142.76 90.9036 143.192 91.3836 143.736C91.8796 144.28 92.2556 144.888 92.5116 145.56C92.7836 146.232 92.9196 146.92 92.9196 147.624C92.9196 148.344 92.7916 149.04 92.5356 149.712C92.2956 150.368 91.9436 150.944 91.4796 151.44C91.0156 151.936 90.4716 152.32 89.8476 152.592L93.7356 159H90.0876L86.5836 153.288H83.2716V159H79.9596ZM83.2716 150.384H87.4236C87.8396 150.384 88.2076 150.264 88.5276 150.024C88.8476 149.768 89.1036 149.432 89.2956 149.016C89.4876 148.6 89.5836 148.136 89.5836 147.624C89.5836 147.08 89.4716 146.608 89.2476 146.208C89.0236 145.792 88.7356 145.464 88.3836 145.224C88.0476 144.984 87.6796 144.864 87.2796 144.864H83.2716V150.384ZM100.553 141.96H103.913L110.177 159H106.769L105.185 154.752H99.2325L97.6725 159H94.2645L100.553 141.96ZM104.585 152.424L102.233 145.392L99.7845 152.424H104.585ZM123.196 144.864H117.748V159H114.46V144.864H109.012V141.96H123.196V144.864ZM137.143 156.096V159H125.311V141.96H136.927V144.864H128.623V148.968H135.799V151.656H128.623V156.096H137.143ZM149.877 146.424C149.765 146.312 149.557 146.16 149.253 145.968C148.965 145.776 148.605 145.592 148.173 145.416C147.757 145.24 147.301 145.088 146.805 144.96C146.309 144.816 145.805 144.744 145.293 144.744C144.397 144.744 143.717 144.912 143.253 145.248C142.805 145.584 142.581 146.056 142.581 146.664C142.581 147.128 142.725 147.496 143.013 147.768C143.301 148.04 143.733 148.272 144.309 148.464C144.885 148.656 145.605 148.864 146.469 149.088C147.589 149.36 148.557 149.696 149.373 150.096C150.205 150.48 150.837 150.992 151.269 151.632C151.717 152.256 151.941 153.088 151.941 154.128C151.941 155.04 151.773 155.824 151.437 156.48C151.101 157.12 150.637 157.64 150.045 158.04C149.453 158.44 148.781 158.736 148.029 158.928C147.277 159.104 146.477 159.192 145.629 159.192C144.781 159.192 143.933 159.104 143.085 158.928C142.237 158.752 141.421 158.504 140.637 158.184C139.853 157.848 139.133 157.448 138.477 156.984L139.941 154.128C140.085 154.272 140.341 154.464 140.709 154.704C141.077 154.928 141.525 155.16 142.053 155.4C142.581 155.624 143.157 155.816 143.781 155.976C144.405 156.136 145.037 156.216 145.677 156.216C146.573 156.216 147.253 156.064 147.717 155.76C148.181 155.456 148.413 155.024 148.413 154.464C148.413 153.952 148.229 153.552 147.861 153.264C147.493 152.976 146.981 152.728 146.325 152.52C145.669 152.296 144.893 152.056 143.997 151.8C142.925 151.496 142.029 151.16 141.309 150.792C140.589 150.408 140.053 149.928 139.701 149.352C139.349 148.776 139.173 148.056 139.173 147.192C139.173 146.024 139.445 145.048 139.989 144.264C140.549 143.464 141.301 142.864 142.245 142.464C143.189 142.048 144.237 141.84 145.389 141.84C146.189 141.84 146.941 141.928 147.645 142.104C148.365 142.28 149.037 142.512 149.661 142.8C150.285 143.088 150.845 143.4 151.341 143.736L149.877 146.424Z" fill="#8F9F67"/>
<path d="M128.57 30.7H123.57V28.7C123.57 27.6391 123.149 26.6217 122.398 25.8715C121.648 25.1214 120.631 24.7 119.57 24.7C118.509 24.7 117.492 25.1214 116.742 25.8715C115.991 26.6217 115.57 27.6391 115.57 28.7V30.7H107.57V28.7C107.57 27.6391 107.149 26.6217 106.398 25.8715C105.648 25.1214 104.631 24.7 103.57 24.7C102.509 24.7 101.492 25.1214 100.742 25.8715C99.9914 26.6217 99.57 27.6391 99.57 28.7V30.7H91.57V28.7C91.57 27.6391 91.1486 26.6217 90.3984 25.8715C89.6483 25.1214 88.6309 24.7 87.57 24.7C86.5091 24.7 85.4917 25.1214 84.7416 25.8715C83.9914 26.6217 83.57 27.6391 83.57 28.7V30.7H78.57C77.2439 30.7 75.9722 31.2267 75.0345 32.1644C74.0968 33.1021 73.57 34.3739 73.57 35.7V75.7C73.57 77.026 74.0968 78.2978 75.0345 79.2355C75.9722 80.1732 77.2439 80.7 78.57 80.7H106.57C106.835 80.7 107.09 80.5946 107.277 80.4071C107.465 80.2195 107.57 79.9652 107.57 79.7C107.57 79.4347 107.465 79.1804 107.277 78.9928C107.09 78.8053 106.835 78.7 106.57 78.7H78.57C77.7744 78.7 77.0113 78.3839 76.4487 77.8213C75.8861 77.2587 75.57 76.4956 75.57 75.7V44.7H131.57V61.7C131.57 61.9652 131.675 62.2195 131.863 62.4071C132.05 62.5946 132.305 62.7 132.57 62.7C132.835 62.7 133.09 62.5946 133.277 62.4071C133.465 62.2195 133.57 61.9652 133.57 61.7V35.7C133.57 34.3739 133.043 33.1021 132.106 32.1644C131.168 31.2267 129.896 30.7 128.57 30.7ZM117.57 28.7C117.57 28.1695 117.781 27.6608 118.156 27.2857C118.531 26.9107 119.04 26.7 119.57 26.7C120.1 26.7 120.609 26.9107 120.984 27.2857C121.359 27.6608 121.57 28.1695 121.57 28.7V34.7C121.57 35.2304 121.359 35.7391 120.984 36.1142C120.609 36.4892 120.1 36.7 119.57 36.7C119.04 36.7 118.531 36.4892 118.156 36.1142C117.781 35.7391 117.57 35.2304 117.57 34.7V28.7ZM101.57 28.7C101.57 28.1695 101.781 27.6608 102.156 27.2857C102.531 26.9107 103.04 26.7 103.57 26.7C104.1 26.7 104.609 26.9107 104.984 27.2857C105.359 27.6608 105.57 28.1695 105.57 28.7V34.7C105.57 35.2304 105.359 35.7391 104.984 36.1142C104.609 36.4892 104.1 36.7 103.57 36.7C103.04 36.7 102.531 36.4892 102.156 36.1142C101.781 35.7391 101.57 35.2304 101.57 34.7V28.7ZM85.57 28.7C85.57 28.1695 85.7807 27.6608 86.1558 27.2857C86.5309 26.9107 87.0396 26.7 87.57 26.7C88.1004 26.7 88.6091 26.9107 88.9842 27.2857C89.3593 27.6608 89.57 28.1695 89.57 28.7V34.7C89.57 35.2304 89.3593 35.7391 88.9842 36.1142C88.6091 36.4892 88.1004 36.7 87.57 36.7C87.0396 36.7 86.5309 36.4892 86.1558 36.1142C85.7807 35.7391 85.57 35.2304 85.57 34.7V28.7ZM131.57 42.7H75.57V35.7C75.57 34.9043 75.8861 34.1412 76.4487 33.5786C77.0113 33.016 77.7744 32.7 78.57 32.7H83.57V34.7C83.57 35.7608 83.9914 36.7782 84.7416 37.5284C85.4917 38.2785 86.5091 38.7 87.57 38.7C88.6309 38.7 89.6483 38.2785 90.3984 37.5284C91.1486 36.7782 91.57 35.7608 91.57 34.7V32.7H99.57V34.7C99.57 35.7608 99.9914 36.7782 100.742 37.5284C101.492 38.2785 102.509 38.7 103.57 38.7C104.631 38.7 105.648 38.2785 106.398 37.5284C107.149 36.7782 107.57 35.7608 107.57 34.7V32.7H115.57V34.7C115.57 35.7608 115.991 36.7782 116.742 37.5284C117.492 38.2785 118.509 38.7 119.57 38.7C120.631 38.7 121.648 38.2785 122.398 37.5284C123.149 36.7782 123.57 35.7608 123.57 34.7V32.7H128.57C129.366 32.7 130.129 33.016 130.691 33.5786C131.254 34.1412 131.57 34.9043 131.57 35.7V42.7Z" fill="#8F9F67"/>
<path d="M101.59 51.6799C101.59 51.1495 101.379 50.6408 101.004 50.2657C100.629 49.8906 100.12 49.6799 99.59 49.6799H95.59C95.0595 49.6799 94.5508 49.8906 94.1758 50.2657C93.8007 50.6408 93.59 51.1495 93.59 51.6799V54.6799C93.59 55.2104 93.8007 55.7191 94.1758 56.0941C94.5508 56.4692 95.0595 56.6799 95.59 56.6799H99.59C100.12 56.6799 100.629 56.4692 101.004 56.0941C101.379 55.7191 101.59 55.2104 101.59 54.6799V51.6799ZM95.59 54.6799V51.6799H99.59V54.6799H95.59Z" fill="#8F9F67"/>
<path d="M89.6 51.6799C89.6 51.1495 89.3893 50.6408 89.0142 50.2657C88.6391 49.8906 88.1304 49.6799 87.6 49.6799H83.6C83.0695 49.6799 82.5608 49.8906 82.1858 50.2657C81.8107 50.6408 81.6 51.1495 81.6 51.6799V54.6799C81.6 55.2104 81.8107 55.7191 82.1858 56.0941C82.5608 56.4692 83.0695 56.6799 83.6 56.6799H87.6C88.1304 56.6799 88.6391 56.4692 89.0142 56.0941C89.3893 55.7191 89.6 55.2104 89.6 54.6799V51.6799ZM83.6 54.6799V51.6799H87.6V54.6799H83.6Z" fill="#8F9F67"/>
<path d="M123.58 56.6799C124.11 56.6799 124.619 56.4692 124.994 56.0941C125.369 55.7191 125.58 55.2104 125.58 54.6799V51.6799C125.58 51.1495 125.369 50.6408 124.994 50.2657C124.619 49.8906 124.11 49.6799 123.58 49.6799H119.58C119.05 49.6799 118.541 49.8906 118.166 50.2657C117.791 50.6408 117.58 51.1495 117.58 51.6799V54.6799C117.58 55.2104 117.791 55.7191 118.166 56.0941C118.541 56.4692 119.05 56.6799 119.58 56.6799H123.58ZM119.58 51.6799H123.58V54.6799H119.58V51.6799Z" fill="#8F9F67"/>
<path d="M101.59 60.6799C101.59 60.1495 101.379 59.6408 101.004 59.2657C100.629 58.8906 100.12 58.6799 99.59 58.6799H95.59C95.0595 58.6799 94.5508 58.8906 94.1758 59.2657C93.8007 59.6408 93.59 60.1495 93.59 60.6799V63.6799C93.59 64.2104 93.8007 64.7191 94.1758 65.0941C94.5508 65.4692 95.0595 65.6799 95.59 65.6799H99.59C100.12 65.6799 100.629 65.4692 101.004 65.0941C101.379 64.7191 101.59 64.2104 101.59 63.6799V60.6799ZM95.59 63.6799V60.6799H99.59V63.6799H95.59Z" fill="#8F9F67"/>
<path d="M89.6 60.6799C89.6 60.1495 89.3893 59.6408 89.0142 59.2657C88.6391 58.8906 88.1304 58.6799 87.6 58.6799H83.6C83.0695 58.6799 82.5608 58.8906 82.1858 59.2657C81.8107 59.6408 81.6 60.1495 81.6 60.6799V63.6799C81.6 64.2104 81.8107 64.7191 82.1858 65.0941C82.5608 65.4692 83.0695 65.6799 83.6 65.6799H87.6C88.1304 65.6799 88.6391 65.4692 89.0142 65.0941C89.3893 64.7191 89.6 64.2104 89.6 63.6799V60.6799ZM83.6 63.6799V60.6799H87.6V63.6799H83.6Z" fill="#8F9F67"/>
<path d="M99.59 67.6699H95.59C95.0595 67.6699 94.5508 67.8806 94.1758 68.2557C93.8007 68.6308 93.59 69.1395 93.59 69.6699V72.6699C93.59 73.2004 93.8007 73.7091 94.1758 74.0841C94.5508 74.4592 95.0595 74.6699 95.59 74.6699H99.59C100.12 74.6699 100.629 74.4592 101.004 74.0841C101.379 73.7091 101.59 73.2004 101.59 72.6699V69.6699C101.59 69.1395 101.379 68.6308 101.004 68.2557C100.629 67.8806 100.12 67.6699 99.59 67.6699ZM95.59 72.6699V69.6699H99.59V72.6699H95.59Z" fill="#8F9F67"/>
<path d="M107.59 56.6799H111.59C112.12 56.6799 112.629 56.4692 113.004 56.0941C113.379 55.7191 113.59 55.2104 113.59 54.6799V51.6799C113.59 51.1495 113.379 50.6408 113.004 50.2657C112.629 49.8906 112.12 49.6799 111.59 49.6799H107.59C107.06 49.6799 106.551 49.8906 106.176 50.2657C105.801 50.6408 105.59 51.1495 105.59 51.6799V54.6799C105.59 55.2104 105.801 55.7191 106.176 56.0941C106.551 56.4692 107.06 56.6799 107.59 56.6799ZM107.59 51.6799H111.59V54.6799H107.59V51.6799Z" fill="#8F9F67"/>
<path d="M105.59 63.6699C105.59 63.9326 105.642 64.1926 105.742 64.4353C105.843 64.6779 105.99 64.8984 106.176 65.0841C106.361 65.2699 106.582 65.4172 106.825 65.5177C107.067 65.6182 107.327 65.6699 107.59 65.6699C107.855 65.6699 108.11 65.5646 108.297 65.377C108.485 65.1895 108.59 64.9351 108.59 64.6699C108.59 64.4047 108.485 64.1504 108.297 63.9628C108.11 63.7753 107.855 63.6699 107.59 63.6699V60.6699H111.59C111.855 60.6699 112.11 60.5646 112.297 60.377C112.485 60.1895 112.59 59.9351 112.59 59.6699C112.59 59.4047 112.485 59.1504 112.297 58.9628C112.11 58.7753 111.855 58.6699 111.59 58.6699H107.59C107.06 58.6699 106.551 58.8806 106.176 59.2557C105.801 59.6308 105.59 60.1395 105.59 60.6699V63.6699Z" fill="#8F9F67"/>
<path d="M87.6 67.6699H83.6C83.0695 67.6699 82.5608 67.8806 82.1858 68.2557C81.8107 68.6308 81.6 69.1395 81.6 69.6699V72.6699C81.6 73.2004 81.8107 73.7091 82.1858 74.0841C82.5608 74.4592 83.0695 74.6699 83.6 74.6699H87.6C88.1304 74.6699 88.6391 74.4592 89.0142 74.0841C89.3893 73.7091 89.6 73.2004 89.6 72.6699V69.6699C89.6 69.1395 89.3893 68.6308 89.0142 68.2557C88.6391 67.8806 88.1304 67.6699 87.6 67.6699ZM83.6 72.6699V69.6699H87.6V72.6699H83.6Z" fill="#8F9F67"/>
<path d="M120.58 58.6799C118.009 58.6799 115.495 59.4424 113.358 60.8708C111.22 62.2993 109.553 64.3296 108.57 66.705C107.586 69.0805 107.328 71.6944 107.83 74.2161C108.331 76.7379 109.569 79.0542 111.388 80.8723C113.206 82.6904 115.522 83.9285 118.044 84.4301C120.566 84.9317 123.179 84.6743 125.555 83.6904C127.93 82.7064 129.961 81.0402 131.389 78.9023C132.818 76.7645 133.58 74.2511 133.58 71.6799C133.58 68.2321 132.21 64.9255 129.772 62.4875C127.334 60.0496 124.028 58.6799 120.58 58.6799ZM120.58 82.6799C118.404 82.6799 116.278 82.0348 114.469 80.8261C112.66 79.6174 111.25 77.8994 110.417 75.8895C109.585 73.8795 109.367 71.6677 109.791 69.5339C110.216 67.4001 111.263 65.4401 112.802 63.9018C114.34 62.3634 116.3 61.3157 118.434 60.8913C120.568 60.4669 122.779 60.6847 124.789 61.5173C126.799 62.3498 128.517 63.7597 129.726 65.5687C130.935 67.3776 131.58 69.5043 131.58 71.6799C131.575 74.5938 130.413 77.3866 128.351 79.4452C126.289 81.5038 123.494 82.6599 120.58 82.6599V82.6799Z" fill="#8F9F67"/>
<path d="M126.31 67.48L118.54 75.25L115.01 71.72C114.823 71.5317 114.569 71.4253 114.304 71.4244C114.038 71.4235 113.783 71.528 113.595 71.715C113.407 71.9019 113.3 72.1561 113.299 72.4214C113.299 72.6868 113.403 72.9417 113.59 73.13L117.83 77.37C117.923 77.4637 118.034 77.5381 118.155 77.5889C118.277 77.6396 118.408 77.6658 118.54 77.6658C118.672 77.6658 118.803 77.6396 118.925 77.5889C119.046 77.5381 119.157 77.4637 119.25 77.37L127.72 68.89C127.884 68.6987 127.969 68.4526 127.96 68.2009C127.95 67.9492 127.846 67.7105 127.668 67.5324C127.489 67.3543 127.251 67.25 126.999 67.2402C126.747 67.2305 126.501 67.3161 126.31 67.48Z" fill="#8F9F67"/>
<path d="M103.59 203.89C158.669 203.89 203.32 159.239 203.32 104.16C203.32 49.0806 158.669 4.42993 103.59 4.42993C48.5106 4.42993 3.85999 49.0806 3.85999 104.16C3.85999 159.239 48.5106 203.89 103.59 203.89Z" stroke="#8F9F67" stroke-width="6.87" stroke-miterlimit="10"/>
</svg>
