<svg width="207" height="208" viewBox="0 0 207 208" fill="none" xmlns="http://www.w3.org/2000/svg">
<path d="M49.9577 110.96L54.5657 124.064L59.1257 110.96H62.6057L56.1497 128H52.9577L46.4777 110.96H49.9577ZM64.4244 128V110.96H67.7364V128H64.4244ZM83.1236 125.096V128H71.2916V110.96H82.9076V113.864H74.6036V117.968H81.7796V120.656H74.6036V125.096H83.1236ZM91.5377 111.008H94.6097L96.5537 116.648L98.5217 111.008H101.57L98.6417 118.76L100.802 124.184L105.626 110.96H109.226L102.41 128H99.5537L96.5537 120.848L93.5777 128H90.7217L83.9297 110.96H87.4817L92.3297 124.184L94.4417 118.76L91.5377 111.008ZM127.934 113.864H122.486V128H119.198V113.864H113.75V110.96H127.934V113.864ZM144.377 110.96V128H141.089V120.728H133.361V128H130.049V110.96H133.361V117.848H141.089V110.96H144.377ZM159.764 125.096V128H147.932V110.96H159.548V113.864H151.244V117.968H158.42V120.656H151.244V125.096H159.764ZM29.1385 147.36C29.1385 146.32 29.3225 145.304 29.6905 144.312C30.0745 143.304 30.6265 142.392 31.3465 141.576C32.0665 140.744 32.9465 140.088 33.9865 139.608C35.0265 139.112 36.2105 138.864 37.5385 138.864C39.1065 138.864 40.4585 139.208 41.5945 139.896C42.7465 140.584 43.6025 141.48 44.1625 142.584L41.6185 144.336C41.3305 143.696 40.9545 143.192 40.4905 142.824C40.0265 142.44 39.5305 142.176 39.0025 142.032C38.4745 141.872 37.9545 141.792 37.4425 141.792C36.6105 141.792 35.8825 141.96 35.2585 142.296C34.6505 142.632 34.1385 143.072 33.7225 143.616C33.3065 144.16 32.9945 144.768 32.7865 145.44C32.5945 146.112 32.4985 146.784 32.4985 147.456C32.4985 148.208 32.6185 148.936 32.8585 149.64C33.0985 150.328 33.4345 150.944 33.8665 151.488C34.3145 152.016 34.8425 152.44 35.4505 152.76C36.0745 153.064 36.7545 153.216 37.4905 153.216C38.0185 153.216 38.5545 153.128 39.0985 152.952C39.6425 152.776 40.1465 152.496 40.6105 152.112C41.0745 151.728 41.4345 151.232 41.6905 150.624L44.4025 152.184C44.0665 153.032 43.5145 153.752 42.7465 154.344C41.9945 154.936 41.1465 155.384 40.2025 155.688C39.2585 155.992 38.3225 156.144 37.3945 156.144C36.1785 156.144 35.0665 155.896 34.0585 155.4C33.0505 154.888 32.1785 154.216 31.4425 153.384C30.7225 152.536 30.1545 151.592 29.7385 150.552C29.3385 149.496 29.1385 148.432 29.1385 147.36ZM51.0213 138.96H54.3813L60.6453 156H57.2373L55.6533 151.752H49.7013L48.1413 156H44.7333L51.0213 138.96ZM55.0533 149.424L52.7013 142.392L50.2533 149.424H55.0533ZM76.4103 156V144.816L72.0423 153.144H70.1943L65.8263 144.816V156H62.5143V138.96H66.0663L71.1063 148.656L76.1943 138.96H79.7223V156H76.4103ZM83.2799 156V138.96H90.5039C91.2879 138.96 92.0079 139.12 92.6639 139.44C93.3199 139.76 93.8879 140.192 94.3679 140.736C94.8639 141.28 95.2479 141.888 95.5199 142.56C95.7919 143.232 95.9279 143.92 95.9279 144.624C95.9279 145.584 95.7039 146.496 95.2559 147.36C94.8079 148.224 94.1919 148.928 93.4079 149.472C92.6239 150.016 91.6959 150.288 90.6239 150.288H86.5919V156H83.2799ZM86.5919 147.384H90.4319C90.8319 147.384 91.1919 147.272 91.5119 147.048C91.8319 146.824 92.0879 146.504 92.2799 146.088C92.4719 145.656 92.5679 145.168 92.5679 144.624C92.5679 144.032 92.4559 143.528 92.2319 143.112C92.0239 142.696 91.7439 142.384 91.3919 142.176C91.0559 141.968 90.6879 141.864 90.2879 141.864H86.5919V147.384ZM103.342 156V138.96H110.878C111.662 138.96 112.382 139.12 113.038 139.44C113.71 139.76 114.286 140.192 114.766 140.736C115.262 141.28 115.638 141.888 115.894 142.56C116.166 143.232 116.302 143.92 116.302 144.624C116.302 145.344 116.174 146.04 115.918 146.712C115.678 147.368 115.326 147.944 114.862 148.44C114.398 148.936 113.854 149.32 113.23 149.592L117.118 156H113.47L109.966 150.288H106.654V156H103.342ZM106.654 147.384H110.806C111.222 147.384 111.59 147.264 111.91 147.024C112.23 146.768 112.486 146.432 112.678 146.016C112.87 145.6 112.966 145.136 112.966 144.624C112.966 144.08 112.854 143.608 112.63 143.208C112.406 142.792 112.118 142.464 111.766 142.224C111.43 141.984 111.062 141.864 110.662 141.864H106.654V147.384ZM126.457 156.12C125.097 156.12 123.937 155.896 122.977 155.448C122.033 154.984 121.265 154.352 120.673 153.552C120.097 152.752 119.673 151.848 119.401 150.84C119.129 149.816 118.993 148.752 118.993 147.648V138.96H122.305V147.648C122.305 148.352 122.369 149.04 122.497 149.712C122.641 150.368 122.873 150.96 123.193 151.488C123.513 152.016 123.937 152.432 124.465 152.736C124.993 153.04 125.649 153.192 126.433 153.192C127.233 153.192 127.897 153.04 128.425 152.736C128.969 152.416 129.393 151.992 129.697 151.464C130.017 150.936 130.249 150.344 130.393 149.688C130.537 149.016 130.609 148.336 130.609 147.648V138.96H133.897V147.648C133.897 148.816 133.753 149.912 133.465 150.936C133.193 151.96 132.753 152.864 132.145 153.648C131.553 154.416 130.785 155.024 129.841 155.472C128.897 155.904 127.769 156.12 126.457 156.12ZM137.233 156V138.96H140.545V153.096H149.233V156H137.233ZM163.081 153.096V156H151.249V138.96H162.865V141.864H154.561V145.968H161.737V148.656H154.561V153.096H163.081ZM175.815 143.424C175.703 143.312 175.495 143.16 175.191 142.968C174.903 142.776 174.543 142.592 174.111 142.416C173.695 142.24 173.239 142.088 172.743 141.96C172.247 141.816 171.743 141.744 171.231 141.744C170.335 141.744 169.655 141.912 169.191 142.248C168.743 142.584 168.519 143.056 168.519 143.664C168.519 144.128 168.663 144.496 168.951 144.768C169.239 145.04 169.671 145.272 170.247 145.464C170.823 145.656 171.543 145.864 172.407 146.088C173.527 146.36 174.495 146.696 175.311 147.096C176.143 147.48 176.775 147.992 177.207 148.632C177.655 149.256 177.879 150.088 177.879 151.128C177.879 152.04 177.711 152.824 177.375 153.48C177.039 154.12 176.575 154.64 175.983 155.04C175.391 155.44 174.719 155.736 173.967 155.928C173.215 156.104 172.415 156.192 171.567 156.192C170.719 156.192 169.871 156.104 169.023 155.928C168.175 155.752 167.359 155.504 166.575 155.184C165.791 154.848 165.071 154.448 164.415 153.984L165.879 151.128C166.023 151.272 166.279 151.464 166.647 151.704C167.015 151.928 167.463 152.16 167.991 152.4C168.519 152.624 169.095 152.816 169.719 152.976C170.343 153.136 170.975 153.216 171.615 153.216C172.511 153.216 173.191 153.064 173.655 152.76C174.119 152.456 174.351 152.024 174.351 151.464C174.351 150.952 174.167 150.552 173.799 150.264C173.431 149.976 172.919 149.728 172.263 149.52C171.607 149.296 170.831 149.056 169.935 148.8C168.863 148.496 167.967 148.16 167.247 147.792C166.527 147.408 165.991 146.928 165.639 146.352C165.287 145.776 165.111 145.056 165.111 144.192C165.111 143.024 165.383 142.048 165.927 141.264C166.487 140.464 167.239 139.864 168.183 139.464C169.127 139.048 170.175 138.84 171.327 138.84C172.127 138.84 172.879 138.928 173.583 139.104C174.303 139.28 174.975 139.512 175.599 139.8C176.223 140.088 176.783 140.4 177.279 140.736L175.815 143.424Z" fill="#D9BA7C"/>
<path d="M137.05 30.8399H132.22V29.1899C132.236 28.8756 132.146 28.565 131.965 28.3077C131.783 28.0504 131.521 27.861 131.22 27.7699C127.877 26.8979 124.435 26.461 120.98 26.4699C115.31 26.4699 107.57 27.7399 101.85 33.5599C96.17 27.6899 88.37 26.4699 82.71 26.4699C79.2474 26.4658 75.7988 26.9095 72.45 27.7899C72.1497 27.8826 71.8886 28.0722 71.7076 28.3292C71.5267 28.5862 71.4361 28.8959 71.45 29.2099V30.7899H66.67C66.2934 30.7899 65.9322 30.9395 65.6659 31.2058C65.3996 31.4721 65.25 31.8333 65.25 32.2099V77.5899C65.2487 77.7768 65.2845 77.962 65.3554 78.1349C65.4263 78.3078 65.5308 78.4649 65.663 78.597C65.7951 78.7291 65.9522 78.8336 66.1251 78.9045C66.2979 78.9754 66.4832 79.0113 66.67 79.0099C66.8982 78.9904 67.1181 78.9149 67.31 78.7899C67.45 78.7199 81.65 70.9499 101.47 75.9499H101.81C101.923 75.9599 102.037 75.9599 102.15 75.9499C122.06 70.9499 136.31 78.6999 136.31 78.7899C136.527 78.9126 136.771 78.9771 137.02 78.9771C137.269 78.9771 137.514 78.9126 137.73 78.7899C137.944 78.6661 138.123 78.4884 138.247 78.2744C138.372 78.0604 138.438 77.8175 138.44 77.5699V32.2599C138.44 31.8885 138.295 31.5317 138.035 31.2663C137.775 31.0008 137.421 30.8478 137.05 30.8399ZM68.05 75.3299V33.6799H71.44V69.2899C71.4374 69.6648 71.583 70.0256 71.8453 70.2935C72.1076 70.5613 72.4652 70.7146 72.84 70.7199H73.07C76.0056 70.2688 78.9701 70.0315 81.94 70.0099C86.0616 69.9119 90.1698 70.5137 94.09 71.7899C85.2568 70.7347 76.3004 71.9533 68.07 75.3299H68.05ZM81.94 67.1699C79.3588 67.1764 76.7805 67.3434 74.22 67.6699V30.3099C76.9848 29.6962 79.808 29.3844 82.64 29.3799C87.95 29.3799 95.28 30.5999 100.36 36.3799V71.7499C97.47 69.7899 91.7 67.1699 81.96 67.1699H81.94ZM103.31 36.3299C108.39 30.6499 115.72 29.3799 121.03 29.3799C123.862 29.3893 126.684 29.7011 129.45 30.3099V67.6699C126.903 67.3401 124.338 67.1698 121.77 67.1599C112.03 67.1599 106.31 69.7899 103.31 71.6899V36.3299ZM135.67 75.3299C127.406 71.9349 118.409 70.7161 109.54 71.7899C113.468 70.4989 117.586 69.8802 121.72 69.9599C124.71 69.9698 127.694 70.2004 130.65 70.6499C130.835 70.6859 131.025 70.6845 131.209 70.6459C131.393 70.6073 131.568 70.5321 131.723 70.425C131.877 70.3178 132.009 70.1807 132.11 70.0219C132.211 69.863 132.279 69.6855 132.31 69.4999C132.32 69.4236 132.32 69.3463 132.31 69.2699V33.6799H135.7L135.67 75.3299Z" fill="#D9BA7C"/>
<path d="M103.6 203.89C158.679 203.89 203.33 159.239 203.33 104.16C203.33 49.0806 158.679 4.42993 103.6 4.42993C48.5206 4.42993 3.87 49.0806 3.87 104.16C3.87 159.239 48.5206 203.89 103.6 203.89Z" stroke="#D9BA7C" stroke-width="6.87" stroke-miterlimit="10"/>
</svg>
