<svg width="63" height="63" viewBox="0 0 63 63" fill="none" xmlns="http://www.w3.org/2000/svg">
<g clip-path="url(#clip0)">
<path d="M62.4239 10.4208L57.0947 5.09045C56.3564 4.35217 55.3548 3.9375 54.3102 3.9375H35.4385V1.96875C35.4385 0.881016 34.5575 0 33.4697 0H29.5322C28.4445 0 27.5635 0.881016 27.5635 1.96875V3.9375H6.8916C5.26123 3.9375 3.93847 5.26025 3.93847 6.89062V16.7344C3.93847 18.3647 5.26123 19.6875 6.8916 19.6875H54.3102C55.3548 19.6875 56.3552 19.2728 57.0947 18.5346L62.4239 13.2054C63.1929 12.4351 63.1929 11.1899 62.4239 10.4208ZM27.5635 61.0312C27.5635 62.119 28.4445 63 29.5322 63H33.4697C34.5575 63 35.4385 62.119 35.4385 61.0312V47.25H27.5635V61.0312ZM56.1103 27.5625H35.4385V23.625H27.5635V27.5625H8.69177C7.64711 27.5625 6.64674 27.9772 5.90722 28.7154L0.578064 34.0458C-0.190979 34.8149 -0.190979 36.0613 0.578064 36.8304L5.90722 42.1595C6.64551 42.8978 7.64711 43.3125 8.69177 43.3125H56.1103C57.7407 43.3125 59.0635 41.9897 59.0635 40.3594V30.5156C59.0635 28.8853 57.7407 27.5625 56.1103 27.5625Z" fill="white"/>
</g>
<defs>
<clipPath id="clip0">
<rect width="63" height="63" fill="white"/>
</clipPath>
</defs>
</svg>
